<?xml version="1.0" encoding="utf-8" standalone="no"?>
<!DOCTYPE svg PUBLIC "-//W3C//DTD SVG 1.1//EN"
  "http://www.w3.org/Graphics/SVG/1.1/DTD/svg11.dtd">
<!-- Created with matplotlib (https://matplotlib.org/) -->
<svg height="345.6pt" version="1.1" viewBox="0 0 460.8 345.6" width="460.8pt" xmlns="http://www.w3.org/2000/svg" xmlns:xlink="http://www.w3.org/1999/xlink">
 <defs>
  <style type="text/css">
*{stroke-linecap:butt;stroke-linejoin:round;white-space:pre;}
  </style>
 </defs>
 <g id="figure_1">
  <g id="patch_1">
   <path d="M 0 345.6 
L 460.8 345.6 
L 460.8 0 
L 0 0 
z
" style="fill:#ffffff;"/>
  </g>
  <g id="axes_1">
   <g id="patch_2">
    <path d="M 57.6 307.584 
L 414.72 307.584 
L 414.72 41.472 
L 57.6 41.472 
z
" style="fill:#ffffff;"/>
   </g>
   <g id="PolyCollection_1">
    <path clip-path="url(#p1c72165ef9)" d="M 73.832727 236.38071 
L 73.832727 134.315664 
L 74.724635 139.806505 
L 75.616543 141.744449 
L 76.508452 150.465196 
L 77.40036 143.359402 
L 78.292268 123.656972 
L 79.184176 114.613234 
L 80.076084 122.042019 
L 80.967992 127.209869 
L 81.8599 152.40314 
L 82.751808 134.315664 
L 83.643716 132.70071 
L 84.535624 130.762766 
L 85.427532 136.253607 
L 86.319441 163.061832 
L 87.211349 154.341084 
L 88.103257 141.744449 
L 88.995165 145.297346 
L 89.887073 150.465196 
L 90.778981 141.744449 
L 91.670889 141.744449 
L 92.562797 146.912299 
L 93.454705 143.359402 
L 94.346613 146.912299 
L 95.238521 152.40314 
L 96.13043 155.956037 
L 97.022338 159.508935 
L 97.914246 145.297346 
L 98.806154 127.209869 
L 99.698062 125.594916 
L 100.58997 138.191551 
L 101.481878 136.253607 
L 102.373786 150.465196 
L 103.265694 155.956037 
L 104.157602 146.912299 
L 105.04951 145.297346 
L 105.941419 146.912299 
L 106.833327 146.912299 
L 107.725235 143.359402 
L 108.617143 159.508935 
L 109.509051 132.70071 
L 110.400959 132.70071 
L 111.292867 122.042019 
L 112.184775 154.341084 
L 113.076683 150.465196 
L 113.968591 146.912299 
L 114.8605 138.191551 
L 115.752408 134.315664 
L 116.644316 138.191551 
L 117.536224 143.359402 
L 118.428132 150.465196 
L 119.32004 152.40314 
L 120.211948 150.465196 
L 121.103856 145.297346 
L 121.995764 148.850243 
L 122.887672 154.341084 
L 123.77958 148.850243 
L 124.671489 145.297346 
L 125.563397 146.912299 
L 126.455305 146.912299 
L 127.347213 134.315664 
L 128.239121 132.70071 
L 129.131029 134.315664 
L 130.022937 134.315664 
L 130.914845 118.166131 
L 131.806753 116.551178 
L 132.698661 120.104075 
L 133.590569 123.656972 
L 134.482478 123.656972 
L 135.374386 120.104075 
L 136.266294 118.166131 
L 137.158202 111.060336 
L 138.05011 98.463701 
L 138.942018 98.463701 
L 139.833926 100.401645 
L 140.725834 100.401645 
L 141.617742 103.954542 
L 142.50965 98.463701 
L 143.401558 87.805009 
L 144.293467 85.867065 
L 145.185375 82.314168 
L 146.077283 85.867065 
L 146.969191 93.29585 
L 147.861099 109.445383 
L 148.753007 96.848748 
L 149.644915 98.463701 
L 150.536823 96.848748 
L 151.428731 112.99828 
L 152.320639 107.507439 
L 153.212547 109.445383 
L 154.104456 96.848748 
L 154.996364 94.910804 
L 155.888272 96.848748 
L 156.78018 102.016598 
L 157.672088 102.016598 
L 158.563996 93.29585 
L 159.455904 94.910804 
L 160.347812 111.060336 
L 161.23972 114.613234 
L 162.131628 87.805009 
L 163.023536 91.357907 
L 163.915445 105.892486 
L 164.807353 96.848748 
L 165.699261 94.910804 
L 166.591169 91.357907 
L 167.483077 91.357907 
L 168.374985 105.892486 
L 169.266893 93.29585 
L 170.158801 91.357907 
L 171.050709 91.357907 
L 171.942617 94.910804 
L 172.834525 96.848748 
L 173.726434 94.910804 
L 174.618342 87.805009 
L 175.51025 85.867065 
L 176.402158 89.742953 
L 177.294066 89.742953 
L 178.185974 89.742953 
L 179.077882 96.848748 
L 179.96979 94.910804 
L 180.861698 93.29585 
L 181.753606 85.867065 
L 182.645514 77.146318 
L 183.537423 80.699215 
L 184.429331 94.910804 
L 185.321239 93.29585 
L 186.213147 102.016598 
L 187.105055 82.314168 
L 187.996963 82.314168 
L 188.888871 89.742953 
L 189.780779 89.742953 
L 190.672687 82.314168 
L 191.564595 80.699215 
L 192.456503 85.867065 
L 193.348412 78.761271 
L 194.24032 82.314168 
L 195.132228 87.805009 
L 196.024136 91.357907 
L 196.916044 84.252112 
L 197.807952 75.208374 
L 198.69986 78.761271 
L 199.591768 82.314168 
L 200.483676 78.761271 
L 201.375584 78.761271 
L 202.267493 77.146318 
L 203.159401 77.146318 
L 204.051309 80.699215 
L 204.943217 66.164636 
L 205.835125 71.655477 
L 206.727033 71.655477 
L 207.618941 73.593421 
L 208.510849 71.655477 
L 209.402757 80.699215 
L 210.294665 80.699215 
L 211.186573 68.102579 
L 212.078482 71.655477 
L 212.97039 73.593421 
L 213.862298 64.549682 
L 214.754206 60.996785 
L 215.646114 66.164636 
L 216.538022 71.655477 
L 217.42993 71.655477 
L 218.321838 80.699215 
L 219.213746 78.761271 
L 220.105654 78.761271 
L 220.997562 78.761271 
L 221.889471 75.208374 
L 222.781379 71.655477 
L 223.673287 69.717533 
L 224.565195 66.164636 
L 225.457103 68.102579 
L 226.349011 66.164636 
L 227.240919 73.593421 
L 228.132827 75.208374 
L 229.024735 66.164636 
L 229.916643 64.549682 
L 230.808551 62.611738 
L 231.70046 68.102579 
L 232.592368 53.568 
L 233.484276 59.058841 
L 234.376184 66.164636 
L 235.268092 66.164636 
L 236.16 60.996785 
L 237.051908 68.102579 
L 237.943816 55.505944 
L 238.835724 59.058841 
L 239.727632 60.996785 
L 240.61954 57.443888 
L 241.511449 57.443888 
L 242.403357 69.717533 
L 243.295265 68.102579 
L 244.187173 69.717533 
L 245.079081 71.655477 
L 245.970989 73.593421 
L 246.862897 75.208374 
L 247.754805 68.102579 
L 248.646713 64.549682 
L 249.538621 53.568 
L 250.430529 59.058841 
L 251.322438 68.102579 
L 252.214346 64.549682 
L 253.106254 53.568 
L 253.998162 60.996785 
L 254.89007 60.996785 
L 255.781978 68.102579 
L 256.673886 73.593421 
L 257.565794 73.593421 
L 258.457702 77.146318 
L 259.34961 68.102579 
L 260.241518 75.208374 
L 261.133427 73.593421 
L 262.025335 71.655477 
L 262.917243 69.717533 
L 263.809151 66.164636 
L 264.701059 64.549682 
L 265.592967 66.164636 
L 266.484875 75.208374 
L 267.376783 78.761271 
L 268.268691 68.102579 
L 269.160599 75.208374 
L 270.052507 73.593421 
L 270.944416 73.593421 
L 271.836324 68.102579 
L 272.728232 78.761271 
L 273.62014 77.146318 
L 274.512048 82.314168 
L 275.403956 77.146318 
L 276.295864 77.146318 
L 277.187772 75.208374 
L 278.07968 75.208374 
L 278.971588 80.699215 
L 279.863497 80.699215 
L 280.755405 80.699215 
L 281.647313 77.146318 
L 282.539221 73.593421 
L 283.431129 73.593421 
L 284.323037 69.717533 
L 285.214945 71.655477 
L 286.106853 75.208374 
L 286.998761 80.699215 
L 287.890669 73.593421 
L 288.782577 73.593421 
L 289.674486 68.102579 
L 290.566394 71.655477 
L 291.458302 64.549682 
L 292.35021 66.164636 
L 293.242118 68.102579 
L 294.134026 69.717533 
L 295.025934 73.593421 
L 295.917842 73.593421 
L 296.80975 77.146318 
L 297.701658 77.146318 
L 298.593566 68.102579 
L 299.485475 66.164636 
L 300.377383 75.208374 
L 301.269291 77.146318 
L 302.161199 77.146318 
L 303.053107 84.252112 
L 303.945015 94.910804 
L 304.836923 91.357907 
L 305.728831 89.742953 
L 306.620739 84.252112 
L 307.512647 85.867065 
L 308.404555 78.761271 
L 309.296464 78.761271 
L 310.188372 77.146318 
L 311.08028 75.208374 
L 311.972188 78.761271 
L 312.864096 82.314168 
L 313.756004 94.910804 
L 314.647912 93.29585 
L 315.53982 94.910804 
L 316.431728 94.910804 
L 317.323636 96.848748 
L 318.215544 91.357907 
L 319.107453 84.252112 
L 319.999361 84.252112 
L 320.891269 80.699215 
L 321.783177 82.314168 
L 322.675085 78.761271 
L 323.566993 78.761271 
L 324.458901 78.761271 
L 325.350809 85.867065 
L 326.242717 84.252112 
L 327.134625 89.742953 
L 328.026533 91.357907 
L 328.918442 93.29585 
L 329.81035 105.892486 
L 330.702258 109.445383 
L 331.594166 102.016598 
L 332.486074 98.463701 
L 333.377982 102.016598 
L 334.26989 112.99828 
L 335.161798 94.910804 
L 336.053706 96.848748 
L 336.945614 98.463701 
L 337.837522 98.463701 
L 338.729431 96.848748 
L 339.621339 102.016598 
L 340.513247 98.463701 
L 341.405155 102.016598 
L 342.297063 116.551178 
L 343.188971 103.954542 
L 344.080879 103.954542 
L 344.972787 112.99828 
L 345.864695 116.551178 
L 346.756603 111.060336 
L 347.648511 103.954542 
L 348.54042 107.507439 
L 349.432328 109.445383 
L 350.324236 111.060336 
L 351.216144 111.060336 
L 352.108052 102.016598 
L 352.99996 112.99828 
L 353.891868 112.99828 
L 354.783776 116.551178 
L 355.675684 111.060336 
L 356.567592 116.551178 
L 357.4595 118.166131 
L 358.351409 122.042019 
L 359.243317 122.042019 
L 360.135225 122.042019 
L 361.027133 127.209869 
L 361.919041 130.762766 
L 362.810949 129.147813 
L 363.702857 114.613234 
L 364.594765 125.594916 
L 365.486673 129.147813 
L 366.378581 122.042019 
L 367.27049 122.042019 
L 368.162398 125.594916 
L 369.054306 120.104075 
L 369.946214 118.166131 
L 370.838122 123.656972 
L 371.73003 125.594916 
L 372.621938 134.315664 
L 373.513846 125.594916 
L 374.405754 125.594916 
L 375.297662 129.147813 
L 376.18957 143.359402 
L 377.081479 157.893981 
L 377.973387 161.446879 
L 378.865295 157.893981 
L 379.757203 148.850243 
L 380.649111 143.359402 
L 381.541019 141.744449 
L 382.432927 148.850243 
L 383.324835 139.806505 
L 384.216743 136.253607 
L 385.108651 139.806505 
L 386.000559 138.191551 
L 386.892468 134.315664 
L 387.784376 145.297346 
L 388.676284 141.744449 
L 389.568192 134.315664 
L 390.4601 141.744449 
L 391.352008 141.744449 
L 392.243916 139.806505 
L 393.135824 152.40314 
L 394.027732 150.465196 
L 394.91964 123.656972 
L 395.811548 122.042019 
L 396.703457 143.359402 
L 397.595365 146.912299 
L 398.487273 139.806505 
L 398.487273 233.150804 
L 398.487273 233.150804 
L 397.595365 231.21286 
L 396.703457 233.150804 
L 395.811548 238.318654 
L 394.91964 229.274916 
L 394.027732 235.088748 
L 393.135824 238.641645 
L 392.243916 238.641645 
L 391.352008 249.300336 
L 390.4601 249.300336 
L 389.568192 247.362393 
L 388.676284 238.641645 
L 387.784376 236.703701 
L 386.892468 247.362393 
L 386.000559 256.406131 
L 385.108651 258.344075 
L 384.216743 238.318654 
L 383.324835 236.703701 
L 382.432927 242.194542 
L 381.541019 252.530243 
L 380.649111 238.641645 
L 379.757203 240.256598 
L 378.865295 245.747439 
L 377.973387 249.300336 
L 377.081479 247.362393 
L 376.18957 243.809495 
L 375.297662 234.765757 
L 374.405754 224.107065 
L 373.513846 217.001271 
L 372.621938 227.659963 
L 371.73003 227.336972 
L 370.838122 218.939215 
L 369.946214 223.784075 
L 369.054306 227.659963 
L 368.162398 220.554168 
L 367.27049 224.107065 
L 366.378581 235.088748 
L 365.486673 233.150804 
L 364.594765 229.274916 
L 363.702857 240.256598 
L 362.810949 243.486505 
L 361.919041 224.107065 
L 361.027133 226.045009 
L 360.135225 231.21286 
L 359.243317 224.107065 
L 358.351409 209.895477 
L 357.4595 215.063327 
L 356.567592 215.063327 
L 355.675684 220.554168 
L 354.783776 215.063327 
L 353.891868 209.572486 
L 352.99996 197.298841 
L 352.108052 204.404636 
L 351.216144 211.187439 
L 350.324236 206.342579 
L 349.432328 209.895477 
L 348.54042 209.895477 
L 347.648511 214.740336 
L 346.756603 213.448374 
L 345.864695 216.67828 
L 344.972787 207.634542 
L 344.080879 204.404636 
L 343.188971 211.187439 
L 342.297063 207.957533 
L 341.405155 200.851738 
L 340.513247 204.404636 
L 339.621339 200.851738 
L 338.729431 200.851738 
L 337.837522 200.851738 
L 336.945614 202.789682 
L 336.053706 202.789682 
L 335.161798 195.037907 
L 334.26989 193.422953 
L 333.377982 198.590804 
L 332.486074 200.528748 
L 331.594166 198.913794 
L 330.702258 195.360897 
L 329.81035 204.404636 
L 328.918442 198.913794 
L 328.026533 202.789682 
L 327.134625 195.360897 
L 326.242717 204.404636 
L 325.350809 198.913794 
L 324.458901 202.789682 
L 323.566993 204.404636 
L 322.675085 186.64015 
L 321.783177 188.255103 
L 320.891269 191.808 
L 319.999361 193.422953 
L 319.107453 186.64015 
L 318.215544 190.193047 
L 317.323636 195.037907 
L 316.431728 188.255103 
L 315.53982 191.485009 
L 314.647912 182.764262 
L 313.756004 174.043514 
L 312.864096 182.764262 
L 311.972188 184.702206 
L 311.08028 191.485009 
L 310.188372 181.149308 
L 309.296464 184.702206 
L 308.404555 186.317159 
L 307.512647 181.149308 
L 306.620739 187.932112 
L 305.728831 181.149308 
L 304.836923 186.64015 
L 303.945015 187.932112 
L 303.053107 182.764262 
L 302.161199 186.64015 
L 301.269291 179.211364 
L 300.377383 172.10557 
L 299.485475 170.490617 
L 298.593566 177.596411 
L 297.701658 168.552673 
L 296.80975 172.10557 
L 295.917842 170.490617 
L 295.025934 170.490617 
L 294.134026 175.658467 
L 293.242118 163.061832 
L 292.35021 163.061832 
L 291.458302 166.614729 
L 290.566394 170.490617 
L 289.674486 174.043514 
L 288.782577 163.061832 
L 287.890669 159.508935 
L 286.998761 163.061832 
L 286.106853 168.552673 
L 285.214945 163.061832 
L 284.323037 168.552673 
L 283.431129 161.446879 
L 282.539221 172.10557 
L 281.647313 159.508935 
L 280.755405 164.999776 
L 279.863497 164.999776 
L 278.971588 161.446879 
L 278.07968 170.490617 
L 277.187772 161.446879 
L 276.295864 166.614729 
L 275.403956 172.10557 
L 274.512048 168.552673 
L 273.62014 159.508935 
L 272.728232 163.061832 
L 271.836324 155.956037 
L 270.944416 163.061832 
L 270.052507 157.893981 
L 269.160599 155.956037 
L 268.268691 155.956037 
L 267.376783 163.061832 
L 266.484875 161.446879 
L 265.592967 161.446879 
L 264.701059 157.893981 
L 263.809151 159.508935 
L 262.917243 161.446879 
L 262.025335 163.061832 
L 261.133427 170.490617 
L 260.241518 168.552673 
L 259.34961 164.999776 
L 258.457702 152.40314 
L 257.565794 155.956037 
L 256.673886 164.999776 
L 255.781978 155.956037 
L 254.89007 155.956037 
L 253.998162 161.446879 
L 253.106254 168.552673 
L 252.214346 157.893981 
L 251.322438 161.446879 
L 250.430529 161.446879 
L 249.538621 157.893981 
L 248.646713 159.508935 
L 247.754805 161.446879 
L 246.862897 166.614729 
L 245.970989 172.10557 
L 245.079081 155.956037 
L 244.187173 155.956037 
L 243.295265 154.341084 
L 242.403357 154.341084 
L 241.511449 168.552673 
L 240.61954 159.508935 
L 239.727632 163.061832 
L 238.835724 168.552673 
L 237.943816 163.061832 
L 237.051908 159.508935 
L 236.16 170.490617 
L 235.268092 164.999776 
L 234.376184 164.999776 
L 233.484276 159.508935 
L 232.592368 152.40314 
L 231.70046 164.999776 
L 230.808551 166.614729 
L 229.916643 159.508935 
L 229.024735 163.061832 
L 228.132827 172.10557 
L 227.240919 168.552673 
L 226.349011 157.893981 
L 225.457103 170.490617 
L 224.565195 170.490617 
L 223.673287 164.999776 
L 222.781379 164.999776 
L 221.889471 166.614729 
L 220.997562 172.10557 
L 220.105654 175.658467 
L 219.213746 168.552673 
L 218.321838 174.043514 
L 217.42993 175.658467 
L 216.538022 168.552673 
L 215.646114 163.061832 
L 214.754206 164.999776 
L 213.862298 179.211364 
L 212.97039 175.658467 
L 212.078482 181.149308 
L 211.186573 174.043514 
L 210.294665 179.211364 
L 209.402757 174.043514 
L 208.510849 170.490617 
L 207.618941 177.596411 
L 206.727033 174.043514 
L 205.835125 184.702206 
L 204.943217 188.255103 
L 204.051309 184.702206 
L 203.159401 187.932112 
L 202.267493 190.193047 
L 201.375584 184.702206 
L 200.483676 191.808 
L 199.591768 182.764262 
L 198.69986 177.596411 
L 197.807952 179.211364 
L 196.916044 189.870056 
L 196.024136 193.422953 
L 195.132228 187.932112 
L 194.24032 195.360897 
L 193.348412 177.596411 
L 192.456503 193.745944 
L 191.564595 204.081645 
L 190.672687 196.97585 
L 189.780779 188.255103 
L 188.888871 190.193047 
L 187.996963 190.193047 
L 187.105055 184.702206 
L 186.213147 193.745944 
L 185.321239 190.193047 
L 184.429331 195.360897 
L 183.537423 204.404636 
L 182.645514 198.913794 
L 181.753606 193.745944 
L 180.861698 195.360897 
L 179.96979 200.528748 
L 179.077882 200.851738 
L 178.185974 197.298841 
L 177.294066 197.298841 
L 176.402158 206.019589 
L 175.51025 197.298841 
L 174.618342 195.360897 
L 173.726434 202.789682 
L 172.834525 200.851738 
L 171.942617 207.957533 
L 171.050709 198.913794 
L 170.158801 197.298841 
L 169.266893 193.745944 
L 168.374985 213.448374 
L 167.483077 222.492112 
L 166.591169 211.51043 
L 165.699261 206.342579 
L 164.807353 200.851738 
L 163.915445 207.957533 
L 163.023536 206.342579 
L 162.131628 211.51043 
L 161.23972 206.342579 
L 160.347812 213.448374 
L 159.455904 211.51043 
L 158.563996 215.063327 
L 157.672088 207.957533 
L 156.78018 211.51043 
L 155.888272 213.448374 
L 154.996364 209.895477 
L 154.104456 211.51043 
L 153.212547 211.51043 
L 152.320639 215.063327 
L 151.428731 217.001271 
L 150.536823 218.939215 
L 149.644915 235.088748 
L 148.753007 235.088748 
L 147.861099 229.597907 
L 146.969191 233.150804 
L 146.077283 227.659963 
L 145.185375 224.107065 
L 144.293467 227.659963 
L 143.401558 218.939215 
L 142.50965 217.001271 
L 141.617742 236.703701 
L 140.725834 242.194542 
L 139.833926 229.597907 
L 138.942018 218.939215 
L 138.05011 251.23828 
L 137.158202 256.406131 
L 136.266294 231.21286 
L 135.374386 224.107065 
L 134.482478 235.088748 
L 133.590569 231.21286 
L 132.698661 238.641645 
L 131.806753 242.194542 
L 130.914845 242.194542 
L 130.022937 245.747439 
L 129.131029 261.896972 
L 128.239121 263.511925 
L 127.347213 243.486505 
L 126.455305 270.94071 
L 125.563397 272.232673 
L 124.671489 261.573981 
L 123.77958 249.300336 
L 122.887672 240.256598 
L 121.995764 252.853234 
L 121.103856 258.344075 
L 120.211948 240.256598 
L 119.32004 242.194542 
L 118.428132 242.194542 
L 117.536224 245.424449 
L 116.644316 256.406131 
L 115.752408 263.188935 
L 114.8605 256.406131 
L 113.968591 267.387813 
L 113.076683 254.791178 
L 112.184775 272.555664 
L 111.292867 277.723514 
L 110.400959 267.064822 
L 109.509051 267.387813 
L 108.617143 252.530243 
L 107.725235 258.344075 
L 106.833327 259.959028 
L 105.941419 269.002766 
L 105.04951 275.78557 
L 104.157602 269.002766 
L 103.265694 259.636037 
L 102.373786 252.853234 
L 101.481878 252.853234 
L 100.58997 247.362393 
L 99.698062 259.959028 
L 98.806154 274.493607 
L 97.914246 279.661458 
L 97.022338 261.896972 
L 96.13043 261.573981 
L 95.238521 263.188935 
L 94.346613 270.94071 
L 93.454705 265.449869 
L 92.562797 274.170617 
L 91.670889 268.679776 
L 90.778981 261.896972 
L 89.887073 281.599402 
L 88.995165 278.046505 
L 88.103257 279.661458 
L 87.211349 279.661458 
L 86.319441 272.555664 
L 85.427532 270.61772 
L 84.535624 265.449869 
L 83.643716 247.039402 
L 82.751808 243.809495 
L 81.8599 267.387813 
L 80.967992 274.493607 
L 80.076084 279.661458 
L 79.184176 283.537346 
L 78.292268 270.61772 
L 77.40036 233.150804 
L 76.508452 269.002766 
L 75.616543 270.94071 
L 74.724635 270.94071 
L 73.832727 236.38071 
z
" style="fill:#778899;fill-opacity:0.25;"/>
   </g>
   <g id="matplotlib.axis_1">
    <g id="xtick_1">
     <g id="line2d_1">
      <defs>
       <path d="M 0 0 
L 0 3.5 
" id="m895bde2ae8" style="stroke:#000000;stroke-width:0.8;"/>
      </defs>
      <g>
       <use style="stroke:#000000;stroke-width:0.8;" x="87.211349" xlink:href="#m895bde2ae8" y="307.584"/>
      </g>
     </g>
     <g id="text_1">
      <!-- Jan -->
      <defs>
       <path d="M 9.8125 72.90625 
L 19.671875 72.90625 
L 19.671875 5.078125 
Q 19.671875 -8.109375 14.671875 -14.0625 
Q 9.671875 -20.015625 -1.421875 -20.015625 
L -5.171875 -20.015625 
L -5.171875 -11.71875 
L -2.09375 -11.71875 
Q 4.4375 -11.71875 7.125 -8.046875 
Q 9.8125 -4.390625 9.8125 5.078125 
z
" id="DejaVuSans-74"/>
       <path d="M 34.28125 27.484375 
Q 23.390625 27.484375 19.1875 25 
Q 14.984375 22.515625 14.984375 16.5 
Q 14.984375 11.71875 18.140625 8.90625 
Q 21.296875 6.109375 26.703125 6.109375 
Q 34.1875 6.109375 38.703125 11.40625 
Q 43.21875 16.703125 43.21875 25.484375 
L 43.21875 27.484375 
z
M 52.203125 31.203125 
L 52.203125 0 
L 43.21875 0 
L 43.21875 8.296875 
Q 40.140625 3.328125 35.546875 0.953125 
Q 30.953125 -1.421875 24.3125 -1.421875 
Q 15.921875 -1.421875 10.953125 3.296875 
Q 6 8.015625 6 15.921875 
Q 6 25.140625 12.171875 29.828125 
Q 18.359375 34.515625 30.609375 34.515625 
L 43.21875 34.515625 
L 43.21875 35.40625 
Q 43.21875 41.609375 39.140625 45 
Q 35.0625 48.390625 27.6875 48.390625 
Q 23 48.390625 18.546875 47.265625 
Q 14.109375 46.140625 10.015625 43.890625 
L 10.015625 52.203125 
Q 14.9375 54.109375 19.578125 55.046875 
Q 24.21875 56 28.609375 56 
Q 40.484375 56 46.34375 49.84375 
Q 52.203125 43.703125 52.203125 31.203125 
z
" id="DejaVuSans-97"/>
       <path d="M 54.890625 33.015625 
L 54.890625 0 
L 45.90625 0 
L 45.90625 32.71875 
Q 45.90625 40.484375 42.875 44.328125 
Q 39.84375 48.1875 33.796875 48.1875 
Q 26.515625 48.1875 22.3125 43.546875 
Q 18.109375 38.921875 18.109375 30.90625 
L 18.109375 0 
L 9.078125 0 
L 9.078125 54.6875 
L 18.109375 54.6875 
L 18.109375 46.1875 
Q 21.34375 51.125 25.703125 53.5625 
Q 30.078125 56 35.796875 56 
Q 45.21875 56 50.046875 50.171875 
Q 54.890625 44.34375 54.890625 33.015625 
z
" id="DejaVuSans-110"/>
      </defs>
      <g style="opacity:0.8;" transform="translate(79.503536 322.182437)scale(0.1 -0.1)">
       <use xlink:href="#DejaVuSans-74"/>
       <use x="29.492188" xlink:href="#DejaVuSans-97"/>
       <use x="90.771484" xlink:href="#DejaVuSans-110"/>
      </g>
     </g>
    </g>
    <g id="xtick_2">
     <g id="line2d_2">
      <g>
       <use style="stroke:#000000;stroke-width:0.8;" x="113.968591" xlink:href="#m895bde2ae8" y="307.584"/>
      </g>
     </g>
     <g id="text_2">
      <!-- Feb -->
      <defs>
       <path d="M 9.8125 72.90625 
L 51.703125 72.90625 
L 51.703125 64.59375 
L 19.671875 64.59375 
L 19.671875 43.109375 
L 48.578125 43.109375 
L 48.578125 34.8125 
L 19.671875 34.8125 
L 19.671875 0 
L 9.8125 0 
z
" id="DejaVuSans-70"/>
       <path d="M 56.203125 29.59375 
L 56.203125 25.203125 
L 14.890625 25.203125 
Q 15.484375 15.921875 20.484375 11.0625 
Q 25.484375 6.203125 34.421875 6.203125 
Q 39.59375 6.203125 44.453125 7.46875 
Q 49.3125 8.734375 54.109375 11.28125 
L 54.109375 2.78125 
Q 49.265625 0.734375 44.1875 -0.34375 
Q 39.109375 -1.421875 33.890625 -1.421875 
Q 20.796875 -1.421875 13.15625 6.1875 
Q 5.515625 13.8125 5.515625 26.8125 
Q 5.515625 40.234375 12.765625 48.109375 
Q 20.015625 56 32.328125 56 
Q 43.359375 56 49.78125 48.890625 
Q 56.203125 41.796875 56.203125 29.59375 
z
M 47.21875 32.234375 
Q 47.125 39.59375 43.09375 43.984375 
Q 39.0625 48.390625 32.421875 48.390625 
Q 24.90625 48.390625 20.390625 44.140625 
Q 15.875 39.890625 15.1875 32.171875 
z
" id="DejaVuSans-101"/>
       <path d="M 48.6875 27.296875 
Q 48.6875 37.203125 44.609375 42.84375 
Q 40.53125 48.484375 33.40625 48.484375 
Q 26.265625 48.484375 22.1875 42.84375 
Q 18.109375 37.203125 18.109375 27.296875 
Q 18.109375 17.390625 22.1875 11.75 
Q 26.265625 6.109375 33.40625 6.109375 
Q 40.53125 6.109375 44.609375 11.75 
Q 48.6875 17.390625 48.6875 27.296875 
z
M 18.109375 46.390625 
Q 20.953125 51.265625 25.265625 53.625 
Q 29.59375 56 35.59375 56 
Q 45.5625 56 51.78125 48.09375 
Q 58.015625 40.1875 58.015625 27.296875 
Q 58.015625 14.40625 51.78125 6.484375 
Q 45.5625 -1.421875 35.59375 -1.421875 
Q 29.59375 -1.421875 25.265625 0.953125 
Q 20.953125 3.328125 18.109375 8.203125 
L 18.109375 0 
L 9.078125 0 
L 9.078125 75.984375 
L 18.109375 75.984375 
z
" id="DejaVuSans-98"/>
      </defs>
      <g style="opacity:0.8;" transform="translate(104.845935 322.182437)scale(0.1 -0.1)">
       <use xlink:href="#DejaVuSans-70"/>
       <use x="57.441406" xlink:href="#DejaVuSans-101"/>
       <use x="118.964844" xlink:href="#DejaVuSans-98"/>
      </g>
     </g>
    </g>
    <g id="xtick_3">
     <g id="line2d_3">
      <g>
       <use style="stroke:#000000;stroke-width:0.8;" x="140.725834" xlink:href="#m895bde2ae8" y="307.584"/>
      </g>
     </g>
     <g id="text_3">
      <!-- Mar -->
      <defs>
       <path d="M 9.8125 72.90625 
L 24.515625 72.90625 
L 43.109375 23.296875 
L 61.8125 72.90625 
L 76.515625 72.90625 
L 76.515625 0 
L 66.890625 0 
L 66.890625 64.015625 
L 48.09375 14.015625 
L 38.1875 14.015625 
L 19.390625 64.015625 
L 19.390625 0 
L 9.8125 0 
z
" id="DejaVuSans-77"/>
       <path d="M 41.109375 46.296875 
Q 39.59375 47.171875 37.8125 47.578125 
Q 36.03125 48 33.890625 48 
Q 26.265625 48 22.1875 43.046875 
Q 18.109375 38.09375 18.109375 28.8125 
L 18.109375 0 
L 9.078125 0 
L 9.078125 54.6875 
L 18.109375 54.6875 
L 18.109375 46.1875 
Q 20.953125 51.171875 25.484375 53.578125 
Q 30.03125 56 36.53125 56 
Q 37.453125 56 38.578125 55.875 
Q 39.703125 55.765625 41.0625 55.515625 
z
" id="DejaVuSans-114"/>
      </defs>
      <g style="opacity:0.8;" transform="translate(131.29224 322.182437)scale(0.1 -0.1)">
       <use xlink:href="#DejaVuSans-77"/>
       <use x="86.279297" xlink:href="#DejaVuSans-97"/>
       <use x="147.558594" xlink:href="#DejaVuSans-114"/>
      </g>
     </g>
    </g>
    <g id="xtick_4">
     <g id="line2d_4">
      <g>
       <use style="stroke:#000000;stroke-width:0.8;" x="167.483077" xlink:href="#m895bde2ae8" y="307.584"/>
      </g>
     </g>
     <g id="text_4">
      <!-- Apr -->
      <defs>
       <path d="M 34.1875 63.1875 
L 20.796875 26.90625 
L 47.609375 26.90625 
z
M 28.609375 72.90625 
L 39.796875 72.90625 
L 67.578125 0 
L 57.328125 0 
L 50.6875 18.703125 
L 17.828125 18.703125 
L 11.1875 0 
L 0.78125 0 
z
" id="DejaVuSans-65"/>
       <path d="M 18.109375 8.203125 
L 18.109375 -20.796875 
L 9.078125 -20.796875 
L 9.078125 54.6875 
L 18.109375 54.6875 
L 18.109375 46.390625 
Q 20.953125 51.265625 25.265625 53.625 
Q 29.59375 56 35.59375 56 
Q 45.5625 56 51.78125 48.09375 
Q 58.015625 40.1875 58.015625 27.296875 
Q 58.015625 14.40625 51.78125 6.484375 
Q 45.5625 -1.421875 35.59375 -1.421875 
Q 29.59375 -1.421875 25.265625 0.953125 
Q 20.953125 3.328125 18.109375 8.203125 
z
M 48.6875 27.296875 
Q 48.6875 37.203125 44.609375 42.84375 
Q 40.53125 48.484375 33.40625 48.484375 
Q 26.265625 48.484375 22.1875 42.84375 
Q 18.109375 37.203125 18.109375 27.296875 
Q 18.109375 17.390625 22.1875 11.75 
Q 26.265625 6.109375 33.40625 6.109375 
Q 40.53125 6.109375 44.609375 11.75 
Q 48.6875 17.390625 48.6875 27.296875 
z
" id="DejaVuSans-112"/>
      </defs>
      <g style="opacity:0.8;" transform="translate(158.833077 322.182437)scale(0.1 -0.1)">
       <use xlink:href="#DejaVuSans-65"/>
       <use x="68.408203" xlink:href="#DejaVuSans-112"/>
       <use x="131.884766" xlink:href="#DejaVuSans-114"/>
      </g>
     </g>
    </g>
    <g id="xtick_5">
     <g id="line2d_5">
      <g>
       <use style="stroke:#000000;stroke-width:0.8;" x="194.24032" xlink:href="#m895bde2ae8" y="307.584"/>
      </g>
     </g>
     <g id="text_5">
      <!-- May -->
      <defs>
       <path d="M 32.171875 -5.078125 
Q 28.375 -14.84375 24.75 -17.8125 
Q 21.140625 -20.796875 15.09375 -20.796875 
L 7.90625 -20.796875 
L 7.90625 -13.28125 
L 13.1875 -13.28125 
Q 16.890625 -13.28125 18.9375 -11.515625 
Q 21 -9.765625 23.484375 -3.21875 
L 25.09375 0.875 
L 2.984375 54.6875 
L 12.5 54.6875 
L 29.59375 11.921875 
L 46.6875 54.6875 
L 56.203125 54.6875 
z
" id="DejaVuSans-121"/>
      </defs>
      <g style="opacity:0.8;" transform="translate(183.90282 322.182437)scale(0.1 -0.1)">
       <use xlink:href="#DejaVuSans-77"/>
       <use x="86.279297" xlink:href="#DejaVuSans-97"/>
       <use x="147.558594" xlink:href="#DejaVuSans-121"/>
      </g>
     </g>
    </g>
    <g id="xtick_6">
     <g id="line2d_6">
      <g>
       <use style="stroke:#000000;stroke-width:0.8;" x="220.997562" xlink:href="#m895bde2ae8" y="307.584"/>
      </g>
     </g>
     <g id="text_6">
      <!-- Jun -->
      <defs>
       <path d="M 8.5 21.578125 
L 8.5 54.6875 
L 17.484375 54.6875 
L 17.484375 21.921875 
Q 17.484375 14.15625 20.5 10.265625 
Q 23.53125 6.390625 29.59375 6.390625 
Q 36.859375 6.390625 41.078125 11.03125 
Q 45.3125 15.671875 45.3125 23.6875 
L 45.3125 54.6875 
L 54.296875 54.6875 
L 54.296875 0 
L 45.3125 0 
L 45.3125 8.40625 
Q 42.046875 3.421875 37.71875 1 
Q 33.40625 -1.421875 27.6875 -1.421875 
Q 18.265625 -1.421875 13.375 4.4375 
Q 8.5 10.296875 8.5 21.578125 
z
M 31.109375 56 
z
" id="DejaVuSans-117"/>
      </defs>
      <g style="opacity:0.8;" transform="translate(213.185062 322.182437)scale(0.1 -0.1)">
       <use xlink:href="#DejaVuSans-74"/>
       <use x="29.492188" xlink:href="#DejaVuSans-117"/>
       <use x="92.871094" xlink:href="#DejaVuSans-110"/>
      </g>
     </g>
    </g>
    <g id="xtick_7">
     <g id="line2d_7">
      <g>
       <use style="stroke:#000000;stroke-width:0.8;" x="247.754805" xlink:href="#m895bde2ae8" y="307.584"/>
      </g>
     </g>
     <g id="text_7">
      <!-- Jul -->
      <defs>
       <path d="M 9.421875 75.984375 
L 18.40625 75.984375 
L 18.40625 0 
L 9.421875 0 
z
" id="DejaVuSans-108"/>
      </defs>
      <g style="opacity:0.8;" transform="translate(241.721993 322.182437)scale(0.1 -0.1)">
       <use xlink:href="#DejaVuSans-74"/>
       <use x="29.492188" xlink:href="#DejaVuSans-117"/>
       <use x="92.871094" xlink:href="#DejaVuSans-108"/>
      </g>
     </g>
    </g>
    <g id="xtick_8">
     <g id="line2d_8">
      <g>
       <use style="stroke:#000000;stroke-width:0.8;" x="274.512048" xlink:href="#m895bde2ae8" y="307.584"/>
      </g>
     </g>
     <g id="text_8">
      <!-- Aug -->
      <defs>
       <path d="M 45.40625 27.984375 
Q 45.40625 37.75 41.375 43.109375 
Q 37.359375 48.484375 30.078125 48.484375 
Q 22.859375 48.484375 18.828125 43.109375 
Q 14.796875 37.75 14.796875 27.984375 
Q 14.796875 18.265625 18.828125 12.890625 
Q 22.859375 7.515625 30.078125 7.515625 
Q 37.359375 7.515625 41.375 12.890625 
Q 45.40625 18.265625 45.40625 27.984375 
z
M 54.390625 6.78125 
Q 54.390625 -7.171875 48.1875 -13.984375 
Q 42 -20.796875 29.203125 -20.796875 
Q 24.46875 -20.796875 20.265625 -20.09375 
Q 16.0625 -19.390625 12.109375 -17.921875 
L 12.109375 -9.1875 
Q 16.0625 -11.328125 19.921875 -12.34375 
Q 23.78125 -13.375 27.78125 -13.375 
Q 36.625 -13.375 41.015625 -8.765625 
Q 45.40625 -4.15625 45.40625 5.171875 
L 45.40625 9.625 
Q 42.625 4.78125 38.28125 2.390625 
Q 33.9375 0 27.875 0 
Q 17.828125 0 11.671875 7.65625 
Q 5.515625 15.328125 5.515625 27.984375 
Q 5.515625 40.671875 11.671875 48.328125 
Q 17.828125 56 27.875 56 
Q 33.9375 56 38.28125 53.609375 
Q 42.625 51.21875 45.40625 46.390625 
L 45.40625 54.6875 
L 54.390625 54.6875 
z
" id="DejaVuSans-103"/>
      </defs>
      <g style="opacity:0.8;" transform="translate(264.748767 322.182437)scale(0.1 -0.1)">
       <use xlink:href="#DejaVuSans-65"/>
       <use x="68.408203" xlink:href="#DejaVuSans-117"/>
       <use x="131.787109" xlink:href="#DejaVuSans-103"/>
      </g>
     </g>
    </g>
    <g id="xtick_9">
     <g id="line2d_9">
      <g>
       <use style="stroke:#000000;stroke-width:0.8;" x="301.269291" xlink:href="#m895bde2ae8" y="307.584"/>
      </g>
     </g>
     <g id="text_9">
      <!-- Sep -->
      <defs>
       <path d="M 53.515625 70.515625 
L 53.515625 60.890625 
Q 47.90625 63.578125 42.921875 64.890625 
Q 37.9375 66.21875 33.296875 66.21875 
Q 25.25 66.21875 20.875 63.09375 
Q 16.5 59.96875 16.5 54.203125 
Q 16.5 49.359375 19.40625 46.890625 
Q 22.3125 44.4375 30.421875 42.921875 
L 36.375 41.703125 
Q 47.40625 39.59375 52.65625 34.296875 
Q 57.90625 29 57.90625 20.125 
Q 57.90625 9.515625 50.796875 4.046875 
Q 43.703125 -1.421875 29.984375 -1.421875 
Q 24.8125 -1.421875 18.96875 -0.25 
Q 13.140625 0.921875 6.890625 3.21875 
L 6.890625 13.375 
Q 12.890625 10.015625 18.65625 8.296875 
Q 24.421875 6.59375 29.984375 6.59375 
Q 38.421875 6.59375 43.015625 9.90625 
Q 47.609375 13.234375 47.609375 19.390625 
Q 47.609375 24.75 44.3125 27.78125 
Q 41.015625 30.8125 33.5 32.328125 
L 27.484375 33.5 
Q 16.453125 35.6875 11.515625 40.375 
Q 6.59375 45.0625 6.59375 53.421875 
Q 6.59375 63.09375 13.40625 68.65625 
Q 20.21875 74.21875 32.171875 74.21875 
Q 37.3125 74.21875 42.625 73.28125 
Q 47.953125 72.359375 53.515625 70.515625 
z
" id="DejaVuSans-83"/>
      </defs>
      <g style="opacity:0.8;" transform="translate(291.844291 322.182437)scale(0.1 -0.1)">
       <use xlink:href="#DejaVuSans-83"/>
       <use x="63.476562" xlink:href="#DejaVuSans-101"/>
       <use x="125" xlink:href="#DejaVuSans-112"/>
      </g>
     </g>
    </g>
    <g id="xtick_10">
     <g id="line2d_10">
      <g>
       <use style="stroke:#000000;stroke-width:0.8;" x="328.026533" xlink:href="#m895bde2ae8" y="307.584"/>
      </g>
     </g>
     <g id="text_10">
      <!-- Oct -->
      <defs>
       <path d="M 39.40625 66.21875 
Q 28.65625 66.21875 22.328125 58.203125 
Q 16.015625 50.203125 16.015625 36.375 
Q 16.015625 22.609375 22.328125 14.59375 
Q 28.65625 6.59375 39.40625 6.59375 
Q 50.140625 6.59375 56.421875 14.59375 
Q 62.703125 22.609375 62.703125 36.375 
Q 62.703125 50.203125 56.421875 58.203125 
Q 50.140625 66.21875 39.40625 66.21875 
z
M 39.40625 74.21875 
Q 54.734375 74.21875 63.90625 63.9375 
Q 73.09375 53.65625 73.09375 36.375 
Q 73.09375 19.140625 63.90625 8.859375 
Q 54.734375 -1.421875 39.40625 -1.421875 
Q 24.03125 -1.421875 14.8125 8.828125 
Q 5.609375 19.09375 5.609375 36.375 
Q 5.609375 53.65625 14.8125 63.9375 
Q 24.03125 74.21875 39.40625 74.21875 
z
" id="DejaVuSans-79"/>
       <path d="M 48.78125 52.59375 
L 48.78125 44.1875 
Q 44.96875 46.296875 41.140625 47.34375 
Q 37.3125 48.390625 33.40625 48.390625 
Q 24.65625 48.390625 19.8125 42.84375 
Q 14.984375 37.3125 14.984375 27.296875 
Q 14.984375 17.28125 19.8125 11.734375 
Q 24.65625 6.203125 33.40625 6.203125 
Q 37.3125 6.203125 41.140625 7.25 
Q 44.96875 8.296875 48.78125 10.40625 
L 48.78125 2.09375 
Q 45.015625 0.34375 40.984375 -0.53125 
Q 36.96875 -1.421875 32.421875 -1.421875 
Q 20.0625 -1.421875 12.78125 6.34375 
Q 5.515625 14.109375 5.515625 27.296875 
Q 5.515625 40.671875 12.859375 48.328125 
Q 20.21875 56 33.015625 56 
Q 37.15625 56 41.109375 55.140625 
Q 45.0625 54.296875 48.78125 52.59375 
z
" id="DejaVuSans-99"/>
       <path d="M 18.3125 70.21875 
L 18.3125 54.6875 
L 36.8125 54.6875 
L 36.8125 47.703125 
L 18.3125 47.703125 
L 18.3125 18.015625 
Q 18.3125 11.328125 20.140625 9.421875 
Q 21.96875 7.515625 27.59375 7.515625 
L 36.8125 7.515625 
L 36.8125 0 
L 27.59375 0 
Q 17.1875 0 13.234375 3.875 
Q 9.28125 7.765625 9.28125 18.015625 
L 9.28125 47.703125 
L 2.6875 47.703125 
L 2.6875 54.6875 
L 9.28125 54.6875 
L 9.28125 70.21875 
z
" id="DejaVuSans-116"/>
      </defs>
      <g style="opacity:0.8;" transform="translate(319.381221 322.182437)scale(0.1 -0.1)">
       <use xlink:href="#DejaVuSans-79"/>
       <use x="78.710938" xlink:href="#DejaVuSans-99"/>
       <use x="133.691406" xlink:href="#DejaVuSans-116"/>
      </g>
     </g>
    </g>
    <g id="xtick_11">
     <g id="line2d_11">
      <g>
       <use style="stroke:#000000;stroke-width:0.8;" x="354.783776" xlink:href="#m895bde2ae8" y="307.584"/>
      </g>
     </g>
     <g id="text_11">
      <!-- Nov -->
      <defs>
       <path d="M 9.8125 72.90625 
L 23.09375 72.90625 
L 55.421875 11.921875 
L 55.421875 72.90625 
L 64.984375 72.90625 
L 64.984375 0 
L 51.703125 0 
L 19.390625 60.984375 
L 19.390625 0 
L 9.8125 0 
z
" id="DejaVuSans-78"/>
       <path d="M 30.609375 48.390625 
Q 23.390625 48.390625 19.1875 42.75 
Q 14.984375 37.109375 14.984375 27.296875 
Q 14.984375 17.484375 19.15625 11.84375 
Q 23.34375 6.203125 30.609375 6.203125 
Q 37.796875 6.203125 41.984375 11.859375 
Q 46.1875 17.53125 46.1875 27.296875 
Q 46.1875 37.015625 41.984375 42.703125 
Q 37.796875 48.390625 30.609375 48.390625 
z
M 30.609375 56 
Q 42.328125 56 49.015625 48.375 
Q 55.71875 40.765625 55.71875 27.296875 
Q 55.71875 13.875 49.015625 6.21875 
Q 42.328125 -1.421875 30.609375 -1.421875 
Q 18.84375 -1.421875 12.171875 6.21875 
Q 5.515625 13.875 5.515625 27.296875 
Q 5.515625 40.765625 12.171875 48.375 
Q 18.84375 56 30.609375 56 
z
" id="DejaVuSans-111"/>
       <path d="M 2.984375 54.6875 
L 12.5 54.6875 
L 29.59375 8.796875 
L 46.6875 54.6875 
L 56.203125 54.6875 
L 35.6875 0 
L 23.484375 0 
z
" id="DejaVuSans-118"/>
      </defs>
      <g style="opacity:0.8;" transform="translate(345.024401 322.182437)scale(0.1 -0.1)">
       <use xlink:href="#DejaVuSans-78"/>
       <use x="74.804688" xlink:href="#DejaVuSans-111"/>
       <use x="135.986328" xlink:href="#DejaVuSans-118"/>
      </g>
     </g>
    </g>
    <g id="xtick_12">
     <g id="line2d_12">
      <g>
       <use style="stroke:#000000;stroke-width:0.8;" x="381.541019" xlink:href="#m895bde2ae8" y="307.584"/>
      </g>
     </g>
     <g id="text_12">
      <!-- Dec -->
      <defs>
       <path d="M 19.671875 64.796875 
L 19.671875 8.109375 
L 31.59375 8.109375 
Q 46.6875 8.109375 53.6875 14.9375 
Q 60.6875 21.78125 60.6875 36.53125 
Q 60.6875 51.171875 53.6875 57.984375 
Q 46.6875 64.796875 31.59375 64.796875 
z
M 9.8125 72.90625 
L 30.078125 72.90625 
Q 51.265625 72.90625 61.171875 64.09375 
Q 71.09375 55.28125 71.09375 36.53125 
Q 71.09375 17.671875 61.125 8.828125 
Q 51.171875 0 30.078125 0 
L 9.8125 0 
z
" id="DejaVuSans-68"/>
      </defs>
      <g style="opacity:0.8;" transform="translate(371.865238 322.182437)scale(0.1 -0.1)">
       <use xlink:href="#DejaVuSans-68"/>
       <use x="77.001953" xlink:href="#DejaVuSans-101"/>
       <use x="138.525391" xlink:href="#DejaVuSans-99"/>
      </g>
     </g>
    </g>
   </g>
   <g id="matplotlib.axis_2">
    <g id="ytick_1">
     <g id="line2d_13">
      <defs>
       <path d="M 0 0 
L -3.5 0 
" id="ma566d01017" style="stroke:#000000;stroke-width:0.8;"/>
      </defs>
      <g>
       <use style="stroke:#000000;stroke-width:0.8;" x="57.6" xlink:href="#ma566d01017" y="281.599402"/>
      </g>
     </g>
     <g id="text_13">
      <!-- −30 -->
      <defs>
       <path d="M 10.59375 35.5 
L 73.1875 35.5 
L 73.1875 27.203125 
L 10.59375 27.203125 
z
" id="DejaVuSans-8722"/>
       <path d="M 40.578125 39.3125 
Q 47.65625 37.796875 51.625 33 
Q 55.609375 28.21875 55.609375 21.1875 
Q 55.609375 10.40625 48.1875 4.484375 
Q 40.765625 -1.421875 27.09375 -1.421875 
Q 22.515625 -1.421875 17.65625 -0.515625 
Q 12.796875 0.390625 7.625 2.203125 
L 7.625 11.71875 
Q 11.71875 9.328125 16.59375 8.109375 
Q 21.484375 6.890625 26.8125 6.890625 
Q 36.078125 6.890625 40.9375 10.546875 
Q 45.796875 14.203125 45.796875 21.1875 
Q 45.796875 27.640625 41.28125 31.265625 
Q 36.765625 34.90625 28.71875 34.90625 
L 20.21875 34.90625 
L 20.21875 43.015625 
L 29.109375 43.015625 
Q 36.375 43.015625 40.234375 45.921875 
Q 44.09375 48.828125 44.09375 54.296875 
Q 44.09375 59.90625 40.109375 62.90625 
Q 36.140625 65.921875 28.71875 65.921875 
Q 24.65625 65.921875 20.015625 65.03125 
Q 15.375 64.15625 9.8125 62.3125 
L 9.8125 71.09375 
Q 15.4375 72.65625 20.34375 73.4375 
Q 25.25 74.21875 29.59375 74.21875 
Q 40.828125 74.21875 47.359375 69.109375 
Q 53.90625 64.015625 53.90625 55.328125 
Q 53.90625 49.265625 50.4375 45.09375 
Q 46.96875 40.921875 40.578125 39.3125 
z
" id="DejaVuSans-51"/>
       <path d="M 31.78125 66.40625 
Q 24.171875 66.40625 20.328125 58.90625 
Q 16.5 51.421875 16.5 36.375 
Q 16.5 21.390625 20.328125 13.890625 
Q 24.171875 6.390625 31.78125 6.390625 
Q 39.453125 6.390625 43.28125 13.890625 
Q 47.125 21.390625 47.125 36.375 
Q 47.125 51.421875 43.28125 58.90625 
Q 39.453125 66.40625 31.78125 66.40625 
z
M 31.78125 74.21875 
Q 44.046875 74.21875 50.515625 64.515625 
Q 56.984375 54.828125 56.984375 36.375 
Q 56.984375 17.96875 50.515625 8.265625 
Q 44.046875 -1.421875 31.78125 -1.421875 
Q 19.53125 -1.421875 13.0625 8.265625 
Q 6.59375 17.96875 6.59375 36.375 
Q 6.59375 54.828125 13.0625 64.515625 
Q 19.53125 74.21875 31.78125 74.21875 
z
" id="DejaVuSans-48"/>
      </defs>
      <g style="opacity:0.8;" transform="translate(29.495313 285.398621)scale(0.1 -0.1)">
       <use xlink:href="#DejaVuSans-8722"/>
       <use x="83.789062" xlink:href="#DejaVuSans-51"/>
       <use x="147.412109" xlink:href="#DejaVuSans-48"/>
      </g>
     </g>
    </g>
    <g id="ytick_2">
     <g id="line2d_14">
      <g>
       <use style="stroke:#000000;stroke-width:0.8;" x="57.6" xlink:href="#ma566d01017" y="249.300336"/>
      </g>
     </g>
     <g id="text_14">
      <!-- −20 -->
      <defs>
       <path d="M 19.1875 8.296875 
L 53.609375 8.296875 
L 53.609375 0 
L 7.328125 0 
L 7.328125 8.296875 
Q 12.9375 14.109375 22.625 23.890625 
Q 32.328125 33.6875 34.8125 36.53125 
Q 39.546875 41.84375 41.421875 45.53125 
Q 43.3125 49.21875 43.3125 52.78125 
Q 43.3125 58.59375 39.234375 62.25 
Q 35.15625 65.921875 28.609375 65.921875 
Q 23.96875 65.921875 18.8125 64.3125 
Q 13.671875 62.703125 7.8125 59.421875 
L 7.8125 69.390625 
Q 13.765625 71.78125 18.9375 73 
Q 24.125 74.21875 28.421875 74.21875 
Q 39.75 74.21875 46.484375 68.546875 
Q 53.21875 62.890625 53.21875 53.421875 
Q 53.21875 48.921875 51.53125 44.890625 
Q 49.859375 40.875 45.40625 35.40625 
Q 44.1875 33.984375 37.640625 27.21875 
Q 31.109375 20.453125 19.1875 8.296875 
z
" id="DejaVuSans-50"/>
      </defs>
      <g style="opacity:0.8;" transform="translate(29.495313 253.099555)scale(0.1 -0.1)">
       <use xlink:href="#DejaVuSans-8722"/>
       <use x="83.789062" xlink:href="#DejaVuSans-50"/>
       <use x="147.412109" xlink:href="#DejaVuSans-48"/>
      </g>
     </g>
    </g>
    <g id="ytick_3">
     <g id="line2d_15">
      <g>
       <use style="stroke:#000000;stroke-width:0.8;" x="57.6" xlink:href="#ma566d01017" y="217.001271"/>
      </g>
     </g>
     <g id="text_15">
      <!-- −10 -->
      <defs>
       <path d="M 12.40625 8.296875 
L 28.515625 8.296875 
L 28.515625 63.921875 
L 10.984375 60.40625 
L 10.984375 69.390625 
L 28.421875 72.90625 
L 38.28125 72.90625 
L 38.28125 8.296875 
L 54.390625 8.296875 
L 54.390625 0 
L 12.40625 0 
z
" id="DejaVuSans-49"/>
      </defs>
      <g style="opacity:0.8;" transform="translate(29.495313 220.80049)scale(0.1 -0.1)">
       <use xlink:href="#DejaVuSans-8722"/>
       <use x="83.789062" xlink:href="#DejaVuSans-49"/>
       <use x="147.412109" xlink:href="#DejaVuSans-48"/>
      </g>
     </g>
    </g>
    <g id="ytick_4">
     <g id="line2d_16">
      <g>
       <use style="stroke:#000000;stroke-width:0.8;" x="57.6" xlink:href="#ma566d01017" y="184.702206"/>
      </g>
     </g>
     <g id="text_16">
      <!-- 0 -->
      <g style="opacity:0.8;" transform="translate(44.2375 188.501424)scale(0.1 -0.1)">
       <use xlink:href="#DejaVuSans-48"/>
      </g>
     </g>
    </g>
    <g id="ytick_5">
     <g id="line2d_17">
      <g>
       <use style="stroke:#000000;stroke-width:0.8;" x="57.6" xlink:href="#ma566d01017" y="152.40314"/>
      </g>
     </g>
     <g id="text_17">
      <!-- 10 -->
      <g style="opacity:0.8;" transform="translate(37.875 156.202359)scale(0.1 -0.1)">
       <use xlink:href="#DejaVuSans-49"/>
       <use x="63.623047" xlink:href="#DejaVuSans-48"/>
      </g>
     </g>
    </g>
    <g id="ytick_6">
     <g id="line2d_18">
      <g>
       <use style="stroke:#000000;stroke-width:0.8;" x="57.6" xlink:href="#ma566d01017" y="120.104075"/>
      </g>
     </g>
     <g id="text_18">
      <!-- 20 -->
      <g style="opacity:0.8;" transform="translate(37.875 123.903294)scale(0.1 -0.1)">
       <use xlink:href="#DejaVuSans-50"/>
       <use x="63.623047" xlink:href="#DejaVuSans-48"/>
      </g>
     </g>
    </g>
    <g id="ytick_7">
     <g id="line2d_19">
      <g>
       <use style="stroke:#000000;stroke-width:0.8;" x="57.6" xlink:href="#ma566d01017" y="87.805009"/>
      </g>
     </g>
     <g id="text_19">
      <!-- 30 -->
      <g style="opacity:0.8;" transform="translate(37.875 91.604228)scale(0.1 -0.1)">
       <use xlink:href="#DejaVuSans-51"/>
       <use x="63.623047" xlink:href="#DejaVuSans-48"/>
      </g>
     </g>
    </g>
    <g id="ytick_8">
     <g id="line2d_20">
      <g>
       <use style="stroke:#000000;stroke-width:0.8;" x="57.6" xlink:href="#ma566d01017" y="55.505944"/>
      </g>
     </g>
     <g id="text_20">
      <!-- 40 -->
      <defs>
       <path d="M 37.796875 64.3125 
L 12.890625 25.390625 
L 37.796875 25.390625 
z
M 35.203125 72.90625 
L 47.609375 72.90625 
L 47.609375 25.390625 
L 58.015625 25.390625 
L 58.015625 17.1875 
L 47.609375 17.1875 
L 47.609375 0 
L 37.796875 0 
L 37.796875 17.1875 
L 4.890625 17.1875 
L 4.890625 26.703125 
z
" id="DejaVuSans-52"/>
      </defs>
      <g style="opacity:0.8;" transform="translate(37.875 59.305163)scale(0.1 -0.1)">
       <use xlink:href="#DejaVuSans-52"/>
       <use x="63.623047" xlink:href="#DejaVuSans-48"/>
      </g>
     </g>
    </g>
    <g id="text_21">
     <!-- Temperature $^{\circ}$ C -->
     <defs>
      <path d="M -0.296875 72.90625 
L 61.375 72.90625 
L 61.375 64.59375 
L 35.5 64.59375 
L 35.5 0 
L 25.59375 0 
L 25.59375 64.59375 
L -0.296875 64.59375 
z
" id="DejaVuSans-84"/>
      <path d="M 52 44.1875 
Q 55.375 50.25 60.0625 53.125 
Q 64.75 56 71.09375 56 
Q 79.640625 56 84.28125 50.015625 
Q 88.921875 44.046875 88.921875 33.015625 
L 88.921875 0 
L 79.890625 0 
L 79.890625 32.71875 
Q 79.890625 40.578125 77.09375 44.375 
Q 74.3125 48.1875 68.609375 48.1875 
Q 61.625 48.1875 57.5625 43.546875 
Q 53.515625 38.921875 53.515625 30.90625 
L 53.515625 0 
L 44.484375 0 
L 44.484375 32.71875 
Q 44.484375 40.625 41.703125 44.40625 
Q 38.921875 48.1875 33.109375 48.1875 
Q 26.21875 48.1875 22.15625 43.53125 
Q 18.109375 38.875 18.109375 30.90625 
L 18.109375 0 
L 9.078125 0 
L 9.078125 54.6875 
L 18.109375 54.6875 
L 18.109375 46.1875 
Q 21.1875 51.21875 25.484375 53.609375 
Q 29.78125 56 35.6875 56 
Q 41.65625 56 45.828125 52.96875 
Q 50 49.953125 52 44.1875 
z
" id="DejaVuSans-109"/>
      <path id="DejaVuSans-32"/>
      <path d="M 31.296875 40.671875 
Q 27.390625 40.671875 24.703125 37.953125 
Q 22.015625 35.25 22.015625 31.34375 
Q 22.015625 27.484375 24.703125 24.828125 
Q 27.390625 22.171875 31.296875 22.171875 
Q 35.203125 22.171875 37.890625 24.828125 
Q 40.578125 27.484375 40.578125 31.34375 
Q 40.578125 35.203125 37.859375 37.9375 
Q 35.15625 40.671875 31.296875 40.671875 
z
M 31.296875 46.96875 
Q 34.421875 46.96875 37.296875 45.765625 
Q 40.1875 44.578125 42.28125 42.328125 
Q 44.53125 40.140625 45.65625 37.34375 
Q 46.78125 34.5625 46.78125 31.34375 
Q 46.78125 24.90625 42.265625 20.4375 
Q 37.75 15.96875 31.203125 15.96875 
Q 24.609375 15.96875 20.21875 20.359375 
Q 15.828125 24.75 15.828125 31.34375 
Q 15.828125 37.890625 20.3125 42.421875 
Q 24.8125 46.96875 31.296875 46.96875 
z
" id="DejaVuSans-8728"/>
      <path d="M 64.40625 67.28125 
L 64.40625 56.890625 
Q 59.421875 61.53125 53.78125 63.8125 
Q 48.140625 66.109375 41.796875 66.109375 
Q 29.296875 66.109375 22.65625 58.46875 
Q 16.015625 50.828125 16.015625 36.375 
Q 16.015625 21.96875 22.65625 14.328125 
Q 29.296875 6.6875 41.796875 6.6875 
Q 48.140625 6.6875 53.78125 8.984375 
Q 59.421875 11.28125 64.40625 15.921875 
L 64.40625 5.609375 
Q 59.234375 2.09375 53.4375 0.328125 
Q 47.65625 -1.421875 41.21875 -1.421875 
Q 24.65625 -1.421875 15.125 8.703125 
Q 5.609375 18.84375 5.609375 36.375 
Q 5.609375 53.953125 15.125 64.078125 
Q 24.65625 74.21875 41.21875 74.21875 
Q 47.75 74.21875 53.53125 72.484375 
Q 59.328125 70.75 64.40625 67.28125 
z
" id="DejaVuSans-67"/>
     </defs>
     <g transform="translate(23.395312 216.228)rotate(-90)scale(0.1 -0.1)">
      <use transform="translate(0 0.78125)" xlink:href="#DejaVuSans-84"/>
      <use transform="translate(61.083984 0.78125)" xlink:href="#DejaVuSans-101"/>
      <use transform="translate(122.607422 0.78125)" xlink:href="#DejaVuSans-109"/>
      <use transform="translate(220.019531 0.78125)" xlink:href="#DejaVuSans-112"/>
      <use transform="translate(283.496094 0.78125)" xlink:href="#DejaVuSans-101"/>
      <use transform="translate(345.019531 0.78125)" xlink:href="#DejaVuSans-114"/>
      <use transform="translate(386.132812 0.78125)" xlink:href="#DejaVuSans-97"/>
      <use transform="translate(447.412109 0.78125)" xlink:href="#DejaVuSans-116"/>
      <use transform="translate(486.621094 0.78125)" xlink:href="#DejaVuSans-117"/>
      <use transform="translate(550 0.78125)" xlink:href="#DejaVuSans-114"/>
      <use transform="translate(591.113281 0.78125)" xlink:href="#DejaVuSans-101"/>
      <use transform="translate(652.636719 0.78125)" xlink:href="#DejaVuSans-32"/>
      <use transform="translate(685.380859 39.0625)scale(0.7)" xlink:href="#DejaVuSans-8728"/>
      <use transform="translate(731.933594 0.78125)" xlink:href="#DejaVuSans-32"/>
      <use transform="translate(763.720703 0.78125)" xlink:href="#DejaVuSans-67"/>
     </g>
    </g>
   </g>
   <g id="line2d_21">
    <path clip-path="url(#p1c72165ef9)" d="M 73.832727 134.315664 
L 74.724635 139.806505 
L 75.616543 141.744449 
L 76.508452 150.465196 
L 77.40036 143.359402 
L 78.292268 123.656972 
L 79.184176 114.613234 
L 80.076084 122.042019 
L 80.967992 127.209869 
L 81.8599 152.40314 
L 82.751808 134.315664 
L 83.643716 132.70071 
L 84.535624 130.762766 
L 85.427532 136.253607 
L 86.319441 163.061832 
L 87.211349 154.341084 
L 88.103257 141.744449 
L 88.995165 145.297346 
L 89.887073 150.465196 
L 90.778981 141.744449 
L 91.670889 141.744449 
L 92.562797 146.912299 
L 93.454705 143.359402 
L 94.346613 146.912299 
L 95.238521 152.40314 
L 97.022338 159.508935 
L 97.914246 145.297346 
L 98.806154 127.209869 
L 99.698062 125.594916 
L 100.58997 138.191551 
L 101.481878 136.253607 
L 102.373786 150.465196 
L 103.265694 155.956037 
L 104.157602 146.912299 
L 105.04951 145.297346 
L 105.941419 146.912299 
L 106.833327 146.912299 
L 107.725235 143.359402 
L 108.617143 159.508935 
L 109.509051 132.70071 
L 110.400959 132.70071 
L 111.292867 122.042019 
L 112.184775 154.341084 
L 113.968591 146.912299 
L 114.8605 138.191551 
L 115.752408 134.315664 
L 116.644316 138.191551 
L 117.536224 143.359402 
L 118.428132 150.465196 
L 119.32004 152.40314 
L 120.211948 150.465196 
L 121.103856 145.297346 
L 121.995764 148.850243 
L 122.887672 154.341084 
L 123.77958 148.850243 
L 124.671489 145.297346 
L 125.563397 146.912299 
L 126.455305 146.912299 
L 127.347213 134.315664 
L 128.239121 132.70071 
L 129.131029 134.315664 
L 130.022937 134.315664 
L 130.914845 118.166131 
L 131.806753 116.551178 
L 133.590569 123.656972 
L 134.482478 123.656972 
L 135.374386 120.104075 
L 136.266294 118.166131 
L 137.158202 111.060336 
L 138.05011 98.463701 
L 138.942018 98.463701 
L 139.833926 100.401645 
L 140.725834 100.401645 
L 141.617742 103.954542 
L 142.50965 98.463701 
L 143.401558 87.805009 
L 144.293467 85.867065 
L 145.185375 82.314168 
L 146.077283 85.867065 
L 146.969191 93.29585 
L 147.861099 109.445383 
L 148.753007 96.848748 
L 149.644915 98.463701 
L 150.536823 96.848748 
L 151.428731 112.99828 
L 152.320639 107.507439 
L 153.212547 109.445383 
L 154.104456 96.848748 
L 154.996364 94.910804 
L 155.888272 96.848748 
L 156.78018 102.016598 
L 157.672088 102.016598 
L 158.563996 93.29585 
L 159.455904 94.910804 
L 160.347812 111.060336 
L 161.23972 114.613234 
L 162.131628 87.805009 
L 163.023536 91.357907 
L 163.915445 105.892486 
L 164.807353 96.848748 
L 165.699261 94.910804 
L 166.591169 91.357907 
L 167.483077 91.357907 
L 168.374985 105.892486 
L 169.266893 93.29585 
L 170.158801 91.357907 
L 171.050709 91.357907 
L 171.942617 94.910804 
L 172.834525 96.848748 
L 173.726434 94.910804 
L 174.618342 87.805009 
L 175.51025 85.867065 
L 176.402158 89.742953 
L 178.185974 89.742953 
L 179.077882 96.848748 
L 179.96979 94.910804 
L 180.861698 93.29585 
L 181.753606 85.867065 
L 182.645514 77.146318 
L 183.537423 80.699215 
L 184.429331 94.910804 
L 185.321239 93.29585 
L 186.213147 102.016598 
L 187.105055 82.314168 
L 187.996963 82.314168 
L 188.888871 89.742953 
L 189.780779 89.742953 
L 190.672687 82.314168 
L 191.564595 80.699215 
L 192.456503 85.867065 
L 193.348412 78.761271 
L 194.24032 82.314168 
L 195.132228 87.805009 
L 196.024136 91.357907 
L 196.916044 84.252112 
L 197.807952 75.208374 
L 199.591768 82.314168 
L 200.483676 78.761271 
L 201.375584 78.761271 
L 202.267493 77.146318 
L 203.159401 77.146318 
L 204.051309 80.699215 
L 204.943217 66.164636 
L 205.835125 71.655477 
L 206.727033 71.655477 
L 207.618941 73.593421 
L 208.510849 71.655477 
L 209.402757 80.699215 
L 210.294665 80.699215 
L 211.186573 68.102579 
L 212.078482 71.655477 
L 212.97039 73.593421 
L 213.862298 64.549682 
L 214.754206 60.996785 
L 216.538022 71.655477 
L 217.42993 71.655477 
L 218.321838 80.699215 
L 219.213746 78.761271 
L 220.997562 78.761271 
L 222.781379 71.655477 
L 223.673287 69.717533 
L 224.565195 66.164636 
L 225.457103 68.102579 
L 226.349011 66.164636 
L 227.240919 73.593421 
L 228.132827 75.208374 
L 229.024735 66.164636 
L 229.916643 64.549682 
L 230.808551 62.611738 
L 231.70046 68.102579 
L 232.592368 53.568 
L 233.484276 59.058841 
L 234.376184 66.164636 
L 235.268092 66.164636 
L 236.16 60.996785 
L 237.051908 68.102579 
L 237.943816 55.505944 
L 238.835724 59.058841 
L 239.727632 60.996785 
L 240.61954 57.443888 
L 241.511449 57.443888 
L 242.403357 69.717533 
L 243.295265 68.102579 
L 244.187173 69.717533 
L 245.970989 73.593421 
L 246.862897 75.208374 
L 247.754805 68.102579 
L 248.646713 64.549682 
L 249.538621 53.568 
L 250.430529 59.058841 
L 251.322438 68.102579 
L 252.214346 64.549682 
L 253.106254 53.568 
L 253.998162 60.996785 
L 254.89007 60.996785 
L 255.781978 68.102579 
L 256.673886 73.593421 
L 257.565794 73.593421 
L 258.457702 77.146318 
L 259.34961 68.102579 
L 260.241518 75.208374 
L 261.133427 73.593421 
L 262.917243 69.717533 
L 263.809151 66.164636 
L 264.701059 64.549682 
L 265.592967 66.164636 
L 266.484875 75.208374 
L 267.376783 78.761271 
L 268.268691 68.102579 
L 269.160599 75.208374 
L 270.052507 73.593421 
L 270.944416 73.593421 
L 271.836324 68.102579 
L 272.728232 78.761271 
L 273.62014 77.146318 
L 274.512048 82.314168 
L 275.403956 77.146318 
L 276.295864 77.146318 
L 277.187772 75.208374 
L 278.07968 75.208374 
L 278.971588 80.699215 
L 280.755405 80.699215 
L 282.539221 73.593421 
L 283.431129 73.593421 
L 284.323037 69.717533 
L 285.214945 71.655477 
L 286.106853 75.208374 
L 286.998761 80.699215 
L 287.890669 73.593421 
L 288.782577 73.593421 
L 289.674486 68.102579 
L 290.566394 71.655477 
L 291.458302 64.549682 
L 292.35021 66.164636 
L 293.242118 68.102579 
L 294.134026 69.717533 
L 295.025934 73.593421 
L 295.917842 73.593421 
L 296.80975 77.146318 
L 297.701658 77.146318 
L 298.593566 68.102579 
L 299.485475 66.164636 
L 300.377383 75.208374 
L 301.269291 77.146318 
L 302.161199 77.146318 
L 303.053107 84.252112 
L 303.945015 94.910804 
L 304.836923 91.357907 
L 305.728831 89.742953 
L 306.620739 84.252112 
L 307.512647 85.867065 
L 308.404555 78.761271 
L 309.296464 78.761271 
L 310.188372 77.146318 
L 311.08028 75.208374 
L 312.864096 82.314168 
L 313.756004 94.910804 
L 314.647912 93.29585 
L 315.53982 94.910804 
L 316.431728 94.910804 
L 317.323636 96.848748 
L 318.215544 91.357907 
L 319.107453 84.252112 
L 319.999361 84.252112 
L 320.891269 80.699215 
L 321.783177 82.314168 
L 322.675085 78.761271 
L 324.458901 78.761271 
L 325.350809 85.867065 
L 326.242717 84.252112 
L 327.134625 89.742953 
L 328.026533 91.357907 
L 328.918442 93.29585 
L 329.81035 105.892486 
L 330.702258 109.445383 
L 331.594166 102.016598 
L 332.486074 98.463701 
L 333.377982 102.016598 
L 334.26989 112.99828 
L 335.161798 94.910804 
L 336.053706 96.848748 
L 336.945614 98.463701 
L 337.837522 98.463701 
L 338.729431 96.848748 
L 339.621339 102.016598 
L 340.513247 98.463701 
L 341.405155 102.016598 
L 342.297063 116.551178 
L 343.188971 103.954542 
L 344.080879 103.954542 
L 344.972787 112.99828 
L 345.864695 116.551178 
L 346.756603 111.060336 
L 347.648511 103.954542 
L 348.54042 107.507439 
L 349.432328 109.445383 
L 350.324236 111.060336 
L 351.216144 111.060336 
L 352.108052 102.016598 
L 352.99996 112.99828 
L 353.891868 112.99828 
L 354.783776 116.551178 
L 355.675684 111.060336 
L 356.567592 116.551178 
L 357.4595 118.166131 
L 358.351409 122.042019 
L 360.135225 122.042019 
L 361.027133 127.209869 
L 361.919041 130.762766 
L 362.810949 129.147813 
L 363.702857 114.613234 
L 364.594765 125.594916 
L 365.486673 129.147813 
L 366.378581 122.042019 
L 367.27049 122.042019 
L 368.162398 125.594916 
L 369.054306 120.104075 
L 369.946214 118.166131 
L 370.838122 123.656972 
L 371.73003 125.594916 
L 372.621938 134.315664 
L 373.513846 125.594916 
L 374.405754 125.594916 
L 375.297662 129.147813 
L 377.081479 157.893981 
L 377.973387 161.446879 
L 378.865295 157.893981 
L 379.757203 148.850243 
L 380.649111 143.359402 
L 381.541019 141.744449 
L 382.432927 148.850243 
L 383.324835 139.806505 
L 384.216743 136.253607 
L 385.108651 139.806505 
L 386.000559 138.191551 
L 386.892468 134.315664 
L 387.784376 145.297346 
L 388.676284 141.744449 
L 389.568192 134.315664 
L 390.4601 141.744449 
L 391.352008 141.744449 
L 392.243916 139.806505 
L 393.135824 152.40314 
L 394.027732 150.465196 
L 394.91964 123.656972 
L 395.811548 122.042019 
L 396.703457 143.359402 
L 397.595365 146.912299 
L 398.487273 139.806505 
L 398.487273 139.806505 
" style="fill:none;stroke:#808080;stroke-linecap:square;stroke-width:1.5;"/>
   </g>
   <g id="line2d_22">
    <path clip-path="url(#p1c72165ef9)" d="M 73.832727 236.38071 
L 74.724635 270.94071 
L 75.616543 270.94071 
L 76.508452 269.002766 
L 77.40036 233.150804 
L 78.292268 270.61772 
L 79.184176 283.537346 
L 80.076084 279.661458 
L 80.967992 274.493607 
L 81.8599 267.387813 
L 82.751808 243.809495 
L 83.643716 247.039402 
L 84.535624 265.449869 
L 85.427532 270.61772 
L 86.319441 272.555664 
L 87.211349 279.661458 
L 88.103257 279.661458 
L 88.995165 278.046505 
L 89.887073 281.599402 
L 90.778981 261.896972 
L 91.670889 268.679776 
L 92.562797 274.170617 
L 93.454705 265.449869 
L 94.346613 270.94071 
L 95.238521 263.188935 
L 96.13043 261.573981 
L 97.022338 261.896972 
L 97.914246 279.661458 
L 98.806154 274.493607 
L 99.698062 259.959028 
L 100.58997 247.362393 
L 101.481878 252.853234 
L 102.373786 252.853234 
L 103.265694 259.636037 
L 104.157602 269.002766 
L 105.04951 275.78557 
L 105.941419 269.002766 
L 106.833327 259.959028 
L 107.725235 258.344075 
L 108.617143 252.530243 
L 109.509051 267.387813 
L 110.400959 267.064822 
L 111.292867 277.723514 
L 112.184775 272.555664 
L 113.076683 254.791178 
L 113.968591 267.387813 
L 114.8605 256.406131 
L 115.752408 263.188935 
L 116.644316 256.406131 
L 117.536224 245.424449 
L 118.428132 242.194542 
L 119.32004 242.194542 
L 120.211948 240.256598 
L 121.103856 258.344075 
L 121.995764 252.853234 
L 122.887672 240.256598 
L 123.77958 249.300336 
L 124.671489 261.573981 
L 125.563397 272.232673 
L 126.455305 270.94071 
L 127.347213 243.486505 
L 128.239121 263.511925 
L 129.131029 261.896972 
L 130.022937 245.747439 
L 130.914845 242.194542 
L 131.806753 242.194542 
L 132.698661 238.641645 
L 133.590569 231.21286 
L 134.482478 235.088748 
L 135.374386 224.107065 
L 136.266294 231.21286 
L 137.158202 256.406131 
L 138.05011 251.23828 
L 138.942018 218.939215 
L 139.833926 229.597907 
L 140.725834 242.194542 
L 141.617742 236.703701 
L 142.50965 217.001271 
L 143.401558 218.939215 
L 144.293467 227.659963 
L 145.185375 224.107065 
L 146.077283 227.659963 
L 146.969191 233.150804 
L 147.861099 229.597907 
L 148.753007 235.088748 
L 149.644915 235.088748 
L 150.536823 218.939215 
L 152.320639 215.063327 
L 153.212547 211.51043 
L 154.104456 211.51043 
L 154.996364 209.895477 
L 155.888272 213.448374 
L 156.78018 211.51043 
L 157.672088 207.957533 
L 158.563996 215.063327 
L 159.455904 211.51043 
L 160.347812 213.448374 
L 161.23972 206.342579 
L 162.131628 211.51043 
L 163.023536 206.342579 
L 163.915445 207.957533 
L 164.807353 200.851738 
L 166.591169 211.51043 
L 167.483077 222.492112 
L 168.374985 213.448374 
L 169.266893 193.745944 
L 170.158801 197.298841 
L 171.050709 198.913794 
L 171.942617 207.957533 
L 172.834525 200.851738 
L 173.726434 202.789682 
L 174.618342 195.360897 
L 175.51025 197.298841 
L 176.402158 206.019589 
L 177.294066 197.298841 
L 178.185974 197.298841 
L 179.077882 200.851738 
L 179.96979 200.528748 
L 180.861698 195.360897 
L 181.753606 193.745944 
L 183.537423 204.404636 
L 184.429331 195.360897 
L 185.321239 190.193047 
L 186.213147 193.745944 
L 187.105055 184.702206 
L 187.996963 190.193047 
L 188.888871 190.193047 
L 189.780779 188.255103 
L 190.672687 196.97585 
L 191.564595 204.081645 
L 192.456503 193.745944 
L 193.348412 177.596411 
L 194.24032 195.360897 
L 195.132228 187.932112 
L 196.024136 193.422953 
L 196.916044 189.870056 
L 197.807952 179.211364 
L 198.69986 177.596411 
L 199.591768 182.764262 
L 200.483676 191.808 
L 201.375584 184.702206 
L 202.267493 190.193047 
L 203.159401 187.932112 
L 204.051309 184.702206 
L 204.943217 188.255103 
L 205.835125 184.702206 
L 206.727033 174.043514 
L 207.618941 177.596411 
L 208.510849 170.490617 
L 209.402757 174.043514 
L 210.294665 179.211364 
L 211.186573 174.043514 
L 212.078482 181.149308 
L 212.97039 175.658467 
L 213.862298 179.211364 
L 214.754206 164.999776 
L 215.646114 163.061832 
L 216.538022 168.552673 
L 217.42993 175.658467 
L 218.321838 174.043514 
L 219.213746 168.552673 
L 220.105654 175.658467 
L 220.997562 172.10557 
L 221.889471 166.614729 
L 222.781379 164.999776 
L 223.673287 164.999776 
L 224.565195 170.490617 
L 225.457103 170.490617 
L 226.349011 157.893981 
L 227.240919 168.552673 
L 228.132827 172.10557 
L 229.024735 163.061832 
L 229.916643 159.508935 
L 230.808551 166.614729 
L 231.70046 164.999776 
L 232.592368 152.40314 
L 233.484276 159.508935 
L 234.376184 164.999776 
L 235.268092 164.999776 
L 236.16 170.490617 
L 237.051908 159.508935 
L 237.943816 163.061832 
L 238.835724 168.552673 
L 239.727632 163.061832 
L 240.61954 159.508935 
L 241.511449 168.552673 
L 242.403357 154.341084 
L 243.295265 154.341084 
L 244.187173 155.956037 
L 245.079081 155.956037 
L 245.970989 172.10557 
L 247.754805 161.446879 
L 248.646713 159.508935 
L 249.538621 157.893981 
L 250.430529 161.446879 
L 251.322438 161.446879 
L 252.214346 157.893981 
L 253.106254 168.552673 
L 253.998162 161.446879 
L 254.89007 155.956037 
L 255.781978 155.956037 
L 256.673886 164.999776 
L 257.565794 155.956037 
L 258.457702 152.40314 
L 259.34961 164.999776 
L 260.241518 168.552673 
L 261.133427 170.490617 
L 262.025335 163.061832 
L 262.917243 161.446879 
L 263.809151 159.508935 
L 264.701059 157.893981 
L 265.592967 161.446879 
L 266.484875 161.446879 
L 267.376783 163.061832 
L 268.268691 155.956037 
L 269.160599 155.956037 
L 270.052507 157.893981 
L 270.944416 163.061832 
L 271.836324 155.956037 
L 272.728232 163.061832 
L 273.62014 159.508935 
L 274.512048 168.552673 
L 275.403956 172.10557 
L 277.187772 161.446879 
L 278.07968 170.490617 
L 278.971588 161.446879 
L 279.863497 164.999776 
L 280.755405 164.999776 
L 281.647313 159.508935 
L 282.539221 172.10557 
L 283.431129 161.446879 
L 284.323037 168.552673 
L 285.214945 163.061832 
L 286.106853 168.552673 
L 286.998761 163.061832 
L 287.890669 159.508935 
L 288.782577 163.061832 
L 289.674486 174.043514 
L 292.35021 163.061832 
L 293.242118 163.061832 
L 294.134026 175.658467 
L 295.025934 170.490617 
L 295.917842 170.490617 
L 296.80975 172.10557 
L 297.701658 168.552673 
L 298.593566 177.596411 
L 299.485475 170.490617 
L 300.377383 172.10557 
L 302.161199 186.64015 
L 303.053107 182.764262 
L 303.945015 187.932112 
L 304.836923 186.64015 
L 305.728831 181.149308 
L 306.620739 187.932112 
L 307.512647 181.149308 
L 308.404555 186.317159 
L 309.296464 184.702206 
L 310.188372 181.149308 
L 311.08028 191.485009 
L 311.972188 184.702206 
L 312.864096 182.764262 
L 313.756004 174.043514 
L 315.53982 191.485009 
L 316.431728 188.255103 
L 317.323636 195.037907 
L 318.215544 190.193047 
L 319.107453 186.64015 
L 319.999361 193.422953 
L 320.891269 191.808 
L 321.783177 188.255103 
L 322.675085 186.64015 
L 323.566993 204.404636 
L 324.458901 202.789682 
L 325.350809 198.913794 
L 326.242717 204.404636 
L 327.134625 195.360897 
L 328.026533 202.789682 
L 328.918442 198.913794 
L 329.81035 204.404636 
L 330.702258 195.360897 
L 331.594166 198.913794 
L 332.486074 200.528748 
L 333.377982 198.590804 
L 334.26989 193.422953 
L 335.161798 195.037907 
L 336.053706 202.789682 
L 336.945614 202.789682 
L 337.837522 200.851738 
L 339.621339 200.851738 
L 340.513247 204.404636 
L 341.405155 200.851738 
L 342.297063 207.957533 
L 343.188971 211.187439 
L 344.080879 204.404636 
L 344.972787 207.634542 
L 345.864695 216.67828 
L 346.756603 213.448374 
L 347.648511 214.740336 
L 348.54042 209.895477 
L 349.432328 209.895477 
L 350.324236 206.342579 
L 351.216144 211.187439 
L 352.99996 197.298841 
L 353.891868 209.572486 
L 355.675684 220.554168 
L 356.567592 215.063327 
L 357.4595 215.063327 
L 358.351409 209.895477 
L 359.243317 224.107065 
L 360.135225 231.21286 
L 361.027133 226.045009 
L 361.919041 224.107065 
L 362.810949 243.486505 
L 363.702857 240.256598 
L 364.594765 229.274916 
L 365.486673 233.150804 
L 366.378581 235.088748 
L 367.27049 224.107065 
L 368.162398 220.554168 
L 369.054306 227.659963 
L 369.946214 223.784075 
L 370.838122 218.939215 
L 371.73003 227.336972 
L 372.621938 227.659963 
L 373.513846 217.001271 
L 374.405754 224.107065 
L 375.297662 234.765757 
L 376.18957 243.809495 
L 377.081479 247.362393 
L 377.973387 249.300336 
L 378.865295 245.747439 
L 379.757203 240.256598 
L 380.649111 238.641645 
L 381.541019 252.530243 
L 382.432927 242.194542 
L 383.324835 236.703701 
L 384.216743 238.318654 
L 385.108651 258.344075 
L 386.000559 256.406131 
L 386.892468 247.362393 
L 387.784376 236.703701 
L 388.676284 238.641645 
L 389.568192 247.362393 
L 390.4601 249.300336 
L 391.352008 249.300336 
L 392.243916 238.641645 
L 393.135824 238.641645 
L 394.027732 235.088748 
L 394.91964 229.274916 
L 395.811548 238.318654 
L 396.703457 233.150804 
L 397.595365 231.21286 
L 398.487273 233.150804 
L 398.487273 233.150804 
" style="fill:none;stroke:#808080;stroke-linecap:square;stroke-width:1.5;"/>
   </g>
   <g id="line2d_23">
    <defs>
     <path d="M 0 3 
C 0.795609 3 1.55874 2.683901 2.12132 2.12132 
C 2.683901 1.55874 3 0.795609 3 0 
C 3 -0.795609 2.683901 -1.55874 2.12132 -2.12132 
C 1.55874 -2.683901 0.795609 -3 0 -3 
C -0.795609 -3 -1.55874 -2.683901 -2.12132 -2.12132 
C -2.683901 -1.55874 -3 -0.795609 -3 0 
C -3 0.795609 -2.683901 1.55874 -2.12132 2.12132 
C -1.55874 2.683901 -0.795609 3 0 3 
z
" id="md50bd908b2" style="stroke:#000000;"/>
    </defs>
    <g clip-path="url(#p1c72165ef9)">
     <use style="stroke:#000000;" x="108.617143" xlink:href="#md50bd908b2" y="157.893981"/>
     <use style="stroke:#000000;" x="168.374985" xlink:href="#md50bd908b2" y="94.910804"/>
     <use style="stroke:#000000;" x="186.213147" xlink:href="#md50bd908b2" y="85.867065"/>
     <use style="stroke:#000000;" x="187.105055" xlink:href="#md50bd908b2" y="77.146318"/>
     <use style="stroke:#000000;" x="189.780779" xlink:href="#md50bd908b2" y="85.867065"/>
     <use style="stroke:#000000;" x="196.024136" xlink:href="#md50bd908b2" y="82.314168"/>
     <use style="stroke:#000000;" x="258.457702" xlink:href="#md50bd908b2" y="75.208374"/>
     <use style="stroke:#000000;" x="260.241518" xlink:href="#md50bd908b2" y="68.102579"/>
     <use style="stroke:#000000;" x="278.971588" xlink:href="#md50bd908b2" y="78.761271"/>
     <use style="stroke:#000000;" x="295.917842" xlink:href="#md50bd908b2" y="71.655477"/>
     <use style="stroke:#000000;" x="296.80975" xlink:href="#md50bd908b2" y="75.208374"/>
     <use style="stroke:#000000;" x="303.945015" xlink:href="#md50bd908b2" y="84.252112"/>
     <use style="stroke:#000000;" x="304.836923" xlink:href="#md50bd908b2" y="82.314168"/>
     <use style="stroke:#000000;" x="305.728831" xlink:href="#md50bd908b2" y="87.805009"/>
     <use style="stroke:#000000;" x="314.647912" xlink:href="#md50bd908b2" y="89.742953"/>
     <use style="stroke:#000000;" x="315.53982" xlink:href="#md50bd908b2" y="93.29585"/>
     <use style="stroke:#000000;" x="334.26989" xlink:href="#md50bd908b2" y="96.848748"/>
     <use style="stroke:#000000;" x="345.864695" xlink:href="#md50bd908b2" y="111.060336"/>
     <use style="stroke:#000000;" x="346.756603" xlink:href="#md50bd908b2" y="100.401645"/>
     <use style="stroke:#000000;" x="347.648511" xlink:href="#md50bd908b2" y="100.401645"/>
     <use style="stroke:#000000;" x="348.54042" xlink:href="#md50bd908b2" y="102.016598"/>
     <use style="stroke:#000000;" x="349.432328" xlink:href="#md50bd908b2" y="107.507439"/>
     <use style="stroke:#000000;" x="360.135225" xlink:href="#md50bd908b2" y="120.104075"/>
     <use style="stroke:#000000;" x="377.081479" xlink:href="#md50bd908b2" y="152.40314"/>
     <use style="stroke:#000000;" x="377.973387" xlink:href="#md50bd908b2" y="152.40314"/>
     <use style="stroke:#000000;" x="378.865295" xlink:href="#md50bd908b2" y="145.297346"/>
     <use style="stroke:#000000;" x="379.757203" xlink:href="#md50bd908b2" y="136.253607"/>
     <use style="stroke:#000000;" x="380.649111" xlink:href="#md50bd908b2" y="134.315664"/>
     <use style="stroke:#000000;" x="381.541019" xlink:href="#md50bd908b2" y="120.104075"/>
     <use style="stroke:#000000;" x="382.432927" xlink:href="#md50bd908b2" y="122.042019"/>
     <use style="stroke:#000000;" x="383.324835" xlink:href="#md50bd908b2" y="125.594916"/>
     <use style="stroke:#000000;" x="384.216743" xlink:href="#md50bd908b2" y="132.70071"/>
     <use style="stroke:#000000;" x="385.108651" xlink:href="#md50bd908b2" y="136.253607"/>
     <use style="stroke:#000000;" x="391.352008" xlink:href="#md50bd908b2" y="125.594916"/>
     <use style="stroke:#000000;" x="392.243916" xlink:href="#md50bd908b2" y="129.147813"/>
     <use style="stroke:#000000;" x="393.135824" xlink:href="#md50bd908b2" y="148.850243"/>
     <use style="stroke:#000000;" x="394.027732" xlink:href="#md50bd908b2" y="146.912299"/>
    </g>
   </g>
   <g id="line2d_24">
    <g clip-path="url(#p1c72165ef9)">
     <use style="stroke:#000000;" x="77.40036" xlink:href="#md50bd908b2" y="234.765757"/>
     <use style="stroke:#000000;" x="82.751808" xlink:href="#md50bd908b2" y="249.300336"/>
     <use style="stroke:#000000;" x="103.265694" xlink:href="#md50bd908b2" y="261.573981"/>
     <use style="stroke:#000000;" x="113.076683" xlink:href="#md50bd908b2" y="261.896972"/>
     <use style="stroke:#000000;" x="113.968591" xlink:href="#md50bd908b2" y="268.679776"/>
     <use style="stroke:#000000;" x="114.8605" xlink:href="#md50bd908b2" y="279.661458"/>
     <use style="stroke:#000000;" x="115.752408" xlink:href="#md50bd908b2" y="272.555664"/>
     <use style="stroke:#000000;" x="117.536224" xlink:href="#md50bd908b2" y="268.679776"/>
     <use style="stroke:#000000;" x="118.428132" xlink:href="#md50bd908b2" y="295.488"/>
     <use style="stroke:#000000;" x="119.32004" xlink:href="#md50bd908b2" y="288.705196"/>
     <use style="stroke:#000000;" x="121.103856" xlink:href="#md50bd908b2" y="270.94071"/>
     <use style="stroke:#000000;" x="121.995764" xlink:href="#md50bd908b2" y="272.555664"/>
     <use style="stroke:#000000;" x="122.887672" xlink:href="#md50bd908b2" y="254.791178"/>
     <use style="stroke:#000000;" x="123.77958" xlink:href="#md50bd908b2" y="254.468187"/>
     <use style="stroke:#000000;" x="124.671489" xlink:href="#md50bd908b2" y="277.723514"/>
     <use style="stroke:#000000;" x="125.563397" xlink:href="#md50bd908b2" y="272.555664"/>
     <use style="stroke:#000000;" x="130.022937" xlink:href="#md50bd908b2" y="256.08314"/>
     <use style="stroke:#000000;" x="130.914845" xlink:href="#md50bd908b2" y="267.064822"/>
     <use style="stroke:#000000;" x="131.806753" xlink:href="#md50bd908b2" y="256.406131"/>
     <use style="stroke:#000000;" x="150.536823" xlink:href="#md50bd908b2" y="224.107065"/>
     <use style="stroke:#000000;" x="151.428731" xlink:href="#md50bd908b2" y="220.554168"/>
     <use style="stroke:#000000;" x="152.320639" xlink:href="#md50bd908b2" y="224.107065"/>
     <use style="stroke:#000000;" x="174.618342" xlink:href="#md50bd908b2" y="207.634542"/>
     <use style="stroke:#000000;" x="175.51025" xlink:href="#md50bd908b2" y="200.851738"/>
     <use style="stroke:#000000;" x="197.807952" xlink:href="#md50bd908b2" y="184.702206"/>
     <use style="stroke:#000000;" x="237.051908" xlink:href="#md50bd908b2" y="161.446879"/>
     <use style="stroke:#000000;" x="286.998761" xlink:href="#md50bd908b2" y="166.614729"/>
     <use style="stroke:#000000;" x="331.594166" xlink:href="#md50bd908b2" y="202.466692"/>
     <use style="stroke:#000000;" x="332.486074" xlink:href="#md50bd908b2" y="202.466692"/>
     <use style="stroke:#000000;" x="333.377982" xlink:href="#md50bd908b2" y="204.404636"/>
     <use style="stroke:#000000;" x="334.26989" xlink:href="#md50bd908b2" y="197.298841"/>
     <use style="stroke:#000000;" x="352.99996" xlink:href="#md50bd908b2" y="198.913794"/>
    </g>
   </g>
   <g id="patch_3">
    <path d="M 57.6 307.584 
L 57.6 41.472 
" style="fill:none;stroke:#000000;stroke-linecap:square;stroke-linejoin:miter;stroke-width:0.8;"/>
   </g>
   <g id="patch_4">
    <path d="M 414.72 307.584 
L 414.72 41.472 
" style="fill:none;stroke:#000000;stroke-linecap:square;stroke-linejoin:miter;stroke-width:0.8;"/>
   </g>
   <g id="patch_5">
    <path d="M 57.6 307.584 
L 414.72 307.584 
" style="fill:none;stroke:#000000;stroke-linecap:square;stroke-linejoin:miter;stroke-width:0.8;"/>
   </g>
   <g id="patch_6">
    <path d="M 57.6 41.472 
L 414.72 41.472 
" style="fill:none;stroke:#000000;stroke-linecap:square;stroke-linejoin:miter;stroke-width:0.8;"/>
   </g>
   <g id="text_22">
    <!-- Max. and Min. Temperature  -->
    <defs>
     <path d="M 54.890625 54.6875 
L 35.109375 28.078125 
L 55.90625 0 
L 45.3125 0 
L 29.390625 21.484375 
L 13.484375 0 
L 2.875 0 
L 24.125 28.609375 
L 4.6875 54.6875 
L 15.28125 54.6875 
L 29.78125 35.203125 
L 44.28125 54.6875 
z
" id="DejaVuSans-120"/>
     <path d="M 10.6875 12.40625 
L 21 12.40625 
L 21 0 
L 10.6875 0 
z
" id="DejaVuSans-46"/>
     <path d="M 45.40625 46.390625 
L 45.40625 75.984375 
L 54.390625 75.984375 
L 54.390625 0 
L 45.40625 0 
L 45.40625 8.203125 
Q 42.578125 3.328125 38.25 0.953125 
Q 33.9375 -1.421875 27.875 -1.421875 
Q 17.96875 -1.421875 11.734375 6.484375 
Q 5.515625 14.40625 5.515625 27.296875 
Q 5.515625 40.1875 11.734375 48.09375 
Q 17.96875 56 27.875 56 
Q 33.9375 56 38.25 53.625 
Q 42.578125 51.265625 45.40625 46.390625 
z
M 14.796875 27.296875 
Q 14.796875 17.390625 18.875 11.75 
Q 22.953125 6.109375 30.078125 6.109375 
Q 37.203125 6.109375 41.296875 11.75 
Q 45.40625 17.390625 45.40625 27.296875 
Q 45.40625 37.203125 41.296875 42.84375 
Q 37.203125 48.484375 30.078125 48.484375 
Q 22.953125 48.484375 18.875 42.84375 
Q 14.796875 37.203125 14.796875 27.296875 
z
" id="DejaVuSans-100"/>
     <path d="M 9.421875 54.6875 
L 18.40625 54.6875 
L 18.40625 0 
L 9.421875 0 
z
M 9.421875 75.984375 
L 18.40625 75.984375 
L 18.40625 64.59375 
L 9.421875 64.59375 
z
" id="DejaVuSans-105"/>
    </defs>
    <g transform="translate(151.238438 22.034625)scale(0.12 -0.12)">
     <use xlink:href="#DejaVuSans-77"/>
     <use x="86.279297" xlink:href="#DejaVuSans-97"/>
     <use x="147.558594" xlink:href="#DejaVuSans-120"/>
     <use x="206.738281" xlink:href="#DejaVuSans-46"/>
     <use x="238.525391" xlink:href="#DejaVuSans-32"/>
     <use x="270.3125" xlink:href="#DejaVuSans-97"/>
     <use x="331.591797" xlink:href="#DejaVuSans-110"/>
     <use x="394.970703" xlink:href="#DejaVuSans-100"/>
     <use x="458.447266" xlink:href="#DejaVuSans-32"/>
     <use x="490.234375" xlink:href="#DejaVuSans-77"/>
     <use x="576.513672" xlink:href="#DejaVuSans-105"/>
     <use x="604.296875" xlink:href="#DejaVuSans-110"/>
     <use x="667.675781" xlink:href="#DejaVuSans-46"/>
     <use x="699.462891" xlink:href="#DejaVuSans-32"/>
     <use x="731.25" xlink:href="#DejaVuSans-84"/>
     <use x="792.068359" xlink:href="#DejaVuSans-101"/>
     <use x="853.591797" xlink:href="#DejaVuSans-109"/>
     <use x="951.003906" xlink:href="#DejaVuSans-112"/>
     <use x="1014.480469" xlink:href="#DejaVuSans-101"/>
     <use x="1076.003906" xlink:href="#DejaVuSans-114"/>
     <use x="1117.117188" xlink:href="#DejaVuSans-97"/>
     <use x="1178.396484" xlink:href="#DejaVuSans-116"/>
     <use x="1217.605469" xlink:href="#DejaVuSans-117"/>
     <use x="1280.984375" xlink:href="#DejaVuSans-114"/>
     <use x="1322.066406" xlink:href="#DejaVuSans-101"/>
     <use x="1383.589844" xlink:href="#DejaVuSans-32"/>
    </g>
    <!--  over 10 year period (2005-2014) -->
    <defs>
     <path d="M 31 75.875 
Q 24.46875 64.65625 21.28125 53.65625 
Q 18.109375 42.671875 18.109375 31.390625 
Q 18.109375 20.125 21.3125 9.0625 
Q 24.515625 -2 31 -13.1875 
L 23.1875 -13.1875 
Q 15.875 -1.703125 12.234375 9.375 
Q 8.59375 20.453125 8.59375 31.390625 
Q 8.59375 42.28125 12.203125 53.3125 
Q 15.828125 64.359375 23.1875 75.875 
z
" id="DejaVuSans-40"/>
     <path d="M 10.796875 72.90625 
L 49.515625 72.90625 
L 49.515625 64.59375 
L 19.828125 64.59375 
L 19.828125 46.734375 
Q 21.96875 47.46875 24.109375 47.828125 
Q 26.265625 48.1875 28.421875 48.1875 
Q 40.625 48.1875 47.75 41.5 
Q 54.890625 34.8125 54.890625 23.390625 
Q 54.890625 11.625 47.5625 5.09375 
Q 40.234375 -1.421875 26.90625 -1.421875 
Q 22.3125 -1.421875 17.546875 -0.640625 
Q 12.796875 0.140625 7.71875 1.703125 
L 7.71875 11.625 
Q 12.109375 9.234375 16.796875 8.0625 
Q 21.484375 6.890625 26.703125 6.890625 
Q 35.15625 6.890625 40.078125 11.328125 
Q 45.015625 15.765625 45.015625 23.390625 
Q 45.015625 31 40.078125 35.4375 
Q 35.15625 39.890625 26.703125 39.890625 
Q 22.75 39.890625 18.8125 39.015625 
Q 14.890625 38.140625 10.796875 36.28125 
z
" id="DejaVuSans-53"/>
     <path d="M 4.890625 31.390625 
L 31.203125 31.390625 
L 31.203125 23.390625 
L 4.890625 23.390625 
z
" id="DejaVuSans-45"/>
     <path d="M 8.015625 75.875 
L 15.828125 75.875 
Q 23.140625 64.359375 26.78125 53.3125 
Q 30.421875 42.28125 30.421875 31.390625 
Q 30.421875 20.453125 26.78125 9.375 
Q 23.140625 -1.703125 15.828125 -13.1875 
L 8.015625 -13.1875 
Q 14.5 -2 17.703125 9.0625 
Q 20.90625 20.125 20.90625 31.390625 
Q 20.90625 42.671875 17.703125 53.65625 
Q 14.5 64.65625 8.015625 75.875 
z
" id="DejaVuSans-41"/>
    </defs>
    <g transform="translate(135.721875 35.472)scale(0.12 -0.12)">
     <use xlink:href="#DejaVuSans-32"/>
     <use x="31.787109" xlink:href="#DejaVuSans-111"/>
     <use x="92.96875" xlink:href="#DejaVuSans-118"/>
     <use x="152.148438" xlink:href="#DejaVuSans-101"/>
     <use x="213.671875" xlink:href="#DejaVuSans-114"/>
     <use x="254.785156" xlink:href="#DejaVuSans-32"/>
     <use x="286.572266" xlink:href="#DejaVuSans-49"/>
     <use x="350.195312" xlink:href="#DejaVuSans-48"/>
     <use x="413.818359" xlink:href="#DejaVuSans-32"/>
     <use x="445.605469" xlink:href="#DejaVuSans-121"/>
     <use x="504.785156" xlink:href="#DejaVuSans-101"/>
     <use x="566.308594" xlink:href="#DejaVuSans-97"/>
     <use x="627.587891" xlink:href="#DejaVuSans-114"/>
     <use x="668.701172" xlink:href="#DejaVuSans-32"/>
     <use x="700.488281" xlink:href="#DejaVuSans-112"/>
     <use x="763.964844" xlink:href="#DejaVuSans-101"/>
     <use x="825.488281" xlink:href="#DejaVuSans-114"/>
     <use x="866.601562" xlink:href="#DejaVuSans-105"/>
     <use x="894.384766" xlink:href="#DejaVuSans-111"/>
     <use x="955.566406" xlink:href="#DejaVuSans-100"/>
     <use x="1019.042969" xlink:href="#DejaVuSans-32"/>
     <use x="1050.830078" xlink:href="#DejaVuSans-40"/>
     <use x="1089.84375" xlink:href="#DejaVuSans-50"/>
     <use x="1153.466797" xlink:href="#DejaVuSans-48"/>
     <use x="1217.089844" xlink:href="#DejaVuSans-48"/>
     <use x="1280.712891" xlink:href="#DejaVuSans-53"/>
     <use x="1344.335938" xlink:href="#DejaVuSans-45"/>
     <use x="1380.419922" xlink:href="#DejaVuSans-50"/>
     <use x="1444.042969" xlink:href="#DejaVuSans-48"/>
     <use x="1507.666016" xlink:href="#DejaVuSans-49"/>
     <use x="1571.289062" xlink:href="#DejaVuSans-52"/>
     <use x="1634.912109" xlink:href="#DejaVuSans-41"/>
    </g>
   </g>
   <g id="legend_1">
    <g id="patch_7">
     <path d="M 254.734062 302.584 
L 407.72 302.584 
Q 409.72 302.584 409.72 300.584 
L 409.72 272.22775 
Q 409.72 270.22775 407.72 270.22775 
L 254.734062 270.22775 
Q 252.734062 270.22775 252.734062 272.22775 
L 252.734062 300.584 
Q 252.734062 302.584 254.734062 302.584 
z
" style="fill:#ffffff;opacity:0.8;stroke:#cccccc;stroke-linejoin:miter;"/>
    </g>
    <g id="line2d_25">
     <path d="M 256.734062 278.326187 
L 276.734062 278.326187 
" style="fill:none;stroke:#808080;stroke-linecap:square;stroke-width:1.5;"/>
    </g>
    <g id="line2d_26"/>
    <g id="text_23">
     <!-- Max &amp; Min Temperature -->
     <defs>
      <path d="M 24.3125 39.203125 
Q 19.875 35.25 17.796875 31.3125 
Q 15.71875 27.390625 15.71875 23.09375 
Q 15.71875 15.96875 20.890625 11.234375 
Q 26.078125 6.5 33.890625 6.5 
Q 38.53125 6.5 42.578125 8.03125 
Q 46.625 9.578125 50.203125 12.703125 
z
M 31.203125 44.671875 
L 56 19.28125 
Q 58.890625 23.640625 60.5 28.59375 
Q 62.109375 33.546875 62.40625 39.109375 
L 71.484375 39.109375 
Q 70.90625 32.671875 68.359375 26.359375 
Q 65.828125 20.0625 61.28125 13.921875 
L 74.90625 0 
L 62.59375 0 
L 55.609375 7.171875 
Q 50.53125 2.828125 44.96875 0.703125 
Q 39.40625 -1.421875 33.015625 -1.421875 
Q 21.234375 -1.421875 13.765625 5.296875 
Q 6.296875 12.015625 6.296875 22.515625 
Q 6.296875 28.765625 9.5625 34.25 
Q 12.84375 39.75 19.390625 44.578125 
Q 17.046875 47.65625 15.8125 50.703125 
Q 14.59375 53.765625 14.59375 56.6875 
Q 14.59375 64.59375 20.015625 69.40625 
Q 25.4375 74.21875 34.421875 74.21875 
Q 38.484375 74.21875 42.5 73.34375 
Q 46.53125 72.46875 50.6875 70.703125 
L 50.6875 61.8125 
Q 46.4375 64.109375 42.578125 65.296875 
Q 38.71875 66.5 35.40625 66.5 
Q 30.28125 66.5 27.078125 63.78125 
Q 23.875 61.078125 23.875 56.78125 
Q 23.875 54.296875 25.3125 51.78125 
Q 26.765625 49.265625 31.203125 44.671875 
z
" id="DejaVuSans-38"/>
     </defs>
     <g transform="translate(284.734062 281.826187)scale(0.1 -0.1)">
      <use xlink:href="#DejaVuSans-77"/>
      <use x="86.279297" xlink:href="#DejaVuSans-97"/>
      <use x="147.558594" xlink:href="#DejaVuSans-120"/>
      <use x="206.738281" xlink:href="#DejaVuSans-32"/>
      <use x="238.525391" xlink:href="#DejaVuSans-38"/>
      <use x="316.503906" xlink:href="#DejaVuSans-32"/>
      <use x="348.291016" xlink:href="#DejaVuSans-77"/>
      <use x="434.570312" xlink:href="#DejaVuSans-105"/>
      <use x="462.353516" xlink:href="#DejaVuSans-110"/>
      <use x="525.732422" xlink:href="#DejaVuSans-32"/>
      <use x="557.519531" xlink:href="#DejaVuSans-84"/>
      <use x="618.337891" xlink:href="#DejaVuSans-101"/>
      <use x="679.861328" xlink:href="#DejaVuSans-109"/>
      <use x="777.273438" xlink:href="#DejaVuSans-112"/>
      <use x="840.75" xlink:href="#DejaVuSans-101"/>
      <use x="902.273438" xlink:href="#DejaVuSans-114"/>
      <use x="943.386719" xlink:href="#DejaVuSans-97"/>
      <use x="1004.666016" xlink:href="#DejaVuSans-116"/>
      <use x="1043.875" xlink:href="#DejaVuSans-117"/>
      <use x="1107.253906" xlink:href="#DejaVuSans-114"/>
      <use x="1148.335938" xlink:href="#DejaVuSans-101"/>
     </g>
    </g>
    <g id="line2d_27"/>
    <g id="line2d_28">
     <g>
      <use style="stroke:#000000;" x="266.734062" xlink:href="#md50bd908b2" y="293.004312"/>
     </g>
    </g>
    <g id="text_24">
     <!-- record break in 2015 -->
     <defs>
      <path d="M 9.078125 75.984375 
L 18.109375 75.984375 
L 18.109375 31.109375 
L 44.921875 54.6875 
L 56.390625 54.6875 
L 27.390625 29.109375 
L 57.625 0 
L 45.90625 0 
L 18.109375 26.703125 
L 18.109375 0 
L 9.078125 0 
z
" id="DejaVuSans-107"/>
     </defs>
     <g transform="translate(284.734062 296.504312)scale(0.1 -0.1)">
      <use xlink:href="#DejaVuSans-114"/>
      <use x="41.082031" xlink:href="#DejaVuSans-101"/>
      <use x="102.605469" xlink:href="#DejaVuSans-99"/>
      <use x="157.585938" xlink:href="#DejaVuSans-111"/>
      <use x="218.767578" xlink:href="#DejaVuSans-114"/>
      <use x="259.865234" xlink:href="#DejaVuSans-100"/>
      <use x="323.341797" xlink:href="#DejaVuSans-32"/>
      <use x="355.128906" xlink:href="#DejaVuSans-98"/>
      <use x="418.605469" xlink:href="#DejaVuSans-114"/>
      <use x="459.6875" xlink:href="#DejaVuSans-101"/>
      <use x="521.210938" xlink:href="#DejaVuSans-97"/>
      <use x="582.490234" xlink:href="#DejaVuSans-107"/>
      <use x="640.400391" xlink:href="#DejaVuSans-32"/>
      <use x="672.1875" xlink:href="#DejaVuSans-105"/>
      <use x="699.970703" xlink:href="#DejaVuSans-110"/>
      <use x="763.349609" xlink:href="#DejaVuSans-32"/>
      <use x="795.136719" xlink:href="#DejaVuSans-50"/>
      <use x="858.759766" xlink:href="#DejaVuSans-48"/>
      <use x="922.382812" xlink:href="#DejaVuSans-49"/>
      <use x="986.005859" xlink:href="#DejaVuSans-53"/>
     </g>
    </g>
   </g>
  </g>
 </g>
 <defs>
  <clipPath id="p1c72165ef9">
   <rect height="266.112" width="357.12" x="57.6" y="41.472"/>
  </clipPath>
 </defs>
</svg>
